<?xml version="1.0" standalone="no"?>
<!DOCTYPE svg PUBLIC "-//W3C//DTD SVG 1.1//EN" "http://www.w3.org/Graphics/SVG/1.1/DTD/svg11.dtd" >
<svg xmlns="http://www.w3.org/2000/svg">
<metadata></metadata>
<defs>
<font id="proxima_nova_condensed_lighLt" horiz-adv-x="962" >
<font-face units-per-em="2048" ascent="1638" descent="-410" />
<missing-glyph horiz-adv-x="444" />
<glyph horiz-adv-x="2048" />
<glyph horiz-adv-x="2048" />
<glyph unicode="&#xd;" horiz-adv-x="681" />
<glyph unicode=" "  horiz-adv-x="444" />
<glyph unicode="&#x09;" horiz-adv-x="444" />
<glyph unicode="&#xa0;" horiz-adv-x="444" />
<glyph unicode="!" horiz-adv-x="446" d="M135 70q0 34 27 60q28 26 61 26q37 0 63 -26q25 -25 25 -60q0 -38 -25 -63t-63 -25q-35 0 -61 25q-27 25 -27 63zM156 1366h135l-27 -1012h-82z" />
<glyph unicode="&#x22;" horiz-adv-x="645" d="M119 1315q0 29 21 50t50 21q31 0 52 -21q20 -20 20 -50q0 -2 -0.5 -5.5t-1 -10t-0.5 -11.5l-5 -52q-3 -29 -6 -71q-4 -52 -7 -78q-3 -35 -21 -208h-59q-16 124 -23 208q-3 26 -7 78q-3 42 -6 71l-5 52q0 5 -0.5 11.5t-1 10t-0.5 5.5zM383 1315q0 30 20 50q21 21 52 21 q30 0 51 -21q20 -20 20 -50q0 -2 -0.5 -5.5t-1 -10t-0.5 -11.5l-5 -52l-7 -71l-8 -78q-3 -35 -21 -208h-59q-18 173 -21 208q-3 26 -7 78q-3 42 -6 71l-5 52q0 5 -0.5 11.5t-1 10t-0.5 5.5z" />
<glyph unicode="#" horiz-adv-x="1011" d="M43 381l20 84h191l123 436h-189l19 82h194l107 383h94l-106 -383h194l107 383h94l-109 -383h187l-19 -82h-190l-125 -436h194l-22 -84h-195l-108 -381h-94l110 381h-196l-109 -381h-94l108 381h-186zM346 465h195l125 436h-195z" />
<glyph unicode="$" horiz-adv-x="929" d="M74 145l69 88q45 -58 122 -104q74 -44 171 -49v582l-118 63q-55 31 -104 77q-47 44 -74 102q-27 59 -27 143q0 71 24 131q23 58 68 103q47 47 102 72q60 27 129 33v187h92v-187q91 -7 166 -44t129 -95l-65 -86q-46 52 -106 83t-124 38v-530q52 -26 117 -67 q57 -36 104 -83q45 -45 73 -110t28 -152q0 -61 -19 -124q-18 -61 -57 -110q-37 -46 -100 -82q-59 -33 -146 -44v-185h-92v180q-118 5 -210 51q-91 46 -152 119zM231 1051q0 -46 17 -83q16 -35 44 -66t64 -54q46 -29 80 -47v479q-87 -12 -146 -74t-59 -155zM528 86 q110 21 157 91q48 71 48 157q0 54 -16 95t-44 75q-24 30 -65 59t-80 51v-528z" />
<glyph unicode="%" horiz-adv-x="1312" d="M68 1049q0 74 20 134q21 64 57 107q39 46 88 71q50 25 115 25t115 -25q49 -25 88 -71q36 -43 57 -107q21 -63 21 -134q0 -73 -21 -133q-22 -63 -57 -105q-39 -47 -88 -70q-51 -24 -115 -24t-115 24q-49 23 -88 70q-35 42 -57 105q-20 57 -20 133zM158 1049q0 -55 13 -100 t39 -80q23 -32 60 -54q33 -20 78 -20t78 20q37 23 59 54q25 36 38 80q14 48 14 100t-14 100q-13 46 -38 83q-23 34 -59 56q-34 21 -78 21t-78 -21q-36 -22 -60 -56q-25 -36 -39 -83q-13 -45 -13 -100zM262 0l713 1366h86l-717 -1366h-82zM686 309q0 71 21 133q22 65 57 107 q39 46 88 71q50 25 113 25q64 0 114 -25q49 -25 88 -71q36 -44 58 -107q20 -59 20 -133t-20 -133q-21 -62 -58 -105q-39 -46 -88 -70q-52 -26 -114 -26q-61 0 -113 26q-49 24 -88 70q-35 41 -57 105q-21 62 -21 133zM776 309q0 -51 14 -99t37 -81q22 -32 60 -55 q35 -21 78 -21q42 0 78 21q38 22 61 55q25 36 38 81t13 99q0 56 -13 101q-14 47 -38 82q-23 33 -61 55q-34 20 -78 20q-45 0 -78 -20q-38 -23 -60 -55q-23 -33 -37 -82q-14 -48 -14 -101z" />
<glyph unicode="&#x26;" horiz-adv-x="1044" d="M86 336q0 80 21 141q23 68 54 112q36 52 78 91q45 42 91 76q-44 91 -67 163q-25 78 -25 146q0 73 19 131t54 101q34 41 82 66q45 23 105 23q102 0 167 -68q66 -69 66 -188q0 -76 -23 -131q-24 -56 -63 -103q-39 -46 -88 -85l-100 -76q30 -54 67 -114q32 -52 64 -97 l69 -104q29 -41 68 -90q46 93 71 176q29 95 42 147l94 -39q-31 -104 -61 -187q-38 -103 -80 -181l94 -116l110 -130h-139l-60 74l-65 80q-61 -81 -137 -129q-79 -50 -180 -50q-69 0 -129 24q-62 25 -104 70q-44 47 -69 113q-26 69 -26 154zM199 340q0 -68 18 -119 q17 -48 49 -85q28 -32 71 -51q38 -17 85 -17q75 0 137 47t111 118l-91 121q-31 43 -69 99l-70 107q-34 54 -65 112q-76 -62 -125 -137q-51 -78 -51 -195zM346 1065q0 -56 20 -121q18 -60 50 -129q34 24 82 64q40 34 68 69t47 81q18 43 18 99q0 86 -39 128t-92 42 q-68 0 -111 -59t-43 -174z" />
<glyph unicode="'" horiz-adv-x="382" d="M119 1315q0 29 21 50t50 21q31 0 52 -21q20 -20 20 -50q0 -2 -0.5 -5.5t-1 -10t-0.5 -11.5l-5 -52q-3 -29 -6 -71q-4 -52 -7 -78q-3 -35 -21 -208h-59q-16 124 -23 208q-3 26 -7 78q-3 42 -6 71l-5 52q0 5 -0.5 11.5t-1 10t-0.5 5.5z" />
<glyph unicode="(" horiz-adv-x="425" d="M94 498q0 246 59 474q58 225 171 431l65 -37q-45 -110 -74 -197q-33 -98 -55 -202t-36 -221q-13 -111 -13 -248q0 -138 13 -248q14 -114 36 -219q23 -106 55 -203q29 -87 74 -197l-65 -39q-112 206 -171 432q-59 228 -59 474z" />
<glyph unicode=")" horiz-adv-x="425" d="M35 -369q45 110 74 197q31 92 56 203q24 105 36 219t12 248t-12 249t-36 220q-25 108 -56 202q-29 87 -74 197l65 37q113 -206 171 -431q59 -228 59 -474t-59 -474q-59 -226 -171 -432z" />
<glyph unicode="*" horiz-adv-x="645" d="M57 993l213 109l-213 110l39 66l201 -131l-12 239h75l-12 -239l203 131l37 -66l-213 -110l213 -109l-37 -65l-203 131l12 -240h-75l12 240l-201 -131z" />
<glyph unicode="+" horiz-adv-x="892" d="M59 649v82h342v373h91v-373h342v-82h-342v-385h-91v385h-342z" />
<glyph unicode="," horiz-adv-x="446" d="M117 -201q46 32 83 88q33 50 38 101q-5 0 -10 -1t-11 -1q-37 0 -59 24q-23 25 -23 60q0 33 25 60q24 26 61 26q41 0 71 -34t30 -95q0 -87 -43 -161q-44 -76 -103 -116z" />
<glyph unicode="-" horiz-adv-x="544" d="M61 449v94h422v-94h-422z" />
<glyph unicode="." horiz-adv-x="446" d="M135 70q0 34 27 60q28 26 61 26q37 0 63 -26q25 -25 25 -60q0 -38 -25 -63t-63 -25q-35 0 -61 25q-27 25 -27 63z" />
<glyph unicode="/" horiz-adv-x="481" d="M0 -41l393 1448h88l-393 -1448h-88z" />
<glyph unicode="0" horiz-adv-x="1028" d="M109 682q0 122 19 245t68 227q47 100 126 167q77 65 194 65q119 0 194 -65q79 -68 124 -167q47 -103 66 -227q20 -129 20 -245t-20 -244q-20 -124 -66 -228q-46 -101 -124 -169q-76 -66 -194 -66q-116 0 -194 66t-126 169q-49 105 -68 228q-19 121 -19 244zM227 682 q0 -94 13 -209q12 -104 44 -193q32 -88 88 -144t144 -56q86 0 141 56q55 57 87 144q32 89 44 193q13 115 13 209t-13 209q-12 104 -44 193q-32 88 -87 143t-141 55q-88 0 -144 -55q-56 -54 -88 -143t-44 -193q-13 -115 -13 -209z" />
<glyph unicode="1" horiz-adv-x="589" d="M37 1057l295 309h102v-1366h-112v1212l-213 -231z" />
<glyph unicode="2" horiz-adv-x="976" d="M109 1169q61 104 152 161q90 56 220 56q73 0 133 -23q63 -24 113 -68q49 -43 78 -110t29 -153q0 -89 -35 -180q-33 -86 -106 -198q-66 -101 -176 -241l-245 -311h566v-102h-723v96l273 336q112 137 186 245q76 111 108 187q35 84 35 166q0 61 -20 109q-21 50 -53 79 q-35 32 -77 48t-88 16q-99 0 -170 -46q-70 -46 -116 -132z" />
<glyph unicode="3" horiz-adv-x="935" d="M66 205l86 63q44 -84 114 -135q73 -53 176 -53q134 0 200 79q67 81 67 214q0 81 -24 133q-25 55 -62 85t-91 46q-48 14 -104 14h-57q-25 0 -41 -2v109q20 -2 42 -2h56q53 0 101 15q47 15 84 47q38 33 58 81q21 49 21 115q0 135 -70 201q-72 67 -180 67q-95 0 -160 -47 q-66 -47 -118 -125l-82 64q57 96 151 154t213 58q77 0 142 -22q63 -21 114 -68q51 -46 77 -112q28 -70 28 -158q0 -66 -21 -120q-23 -58 -54 -95q-37 -43 -77 -68t-86 -36q43 -6 88 -33t82 -70q40 -46 62 -102q24 -60 24 -135q0 -84 -24 -156q-23 -68 -72 -124 q-46 -51 -119 -82q-72 -30 -164 -30q-139 0 -235 69q-95 68 -145 161z" />
<glyph unicode="4" horiz-adv-x="901" d="M49 375v104l500 887h147v-889h156v-102h-156v-375h-112v375h-535zM158 477h426v756z" />
<glyph unicode="5" horiz-adv-x="976" d="M119 203l84 65q47 -93 115 -140q69 -48 176 -48q61 0 107 26q49 28 83 73q36 48 53 106q19 63 19 127q0 164 -70 251q-69 85 -184 85q-74 0 -134 -30t-122 -104l-88 37v715h645v-102h-533v-535q41 51 107 86q67 35 149 35q71 0 136 -28q63 -27 110 -83q48 -57 74 -137 q26 -79 26 -188q0 -96 -28 -174q-28 -79 -79 -139q-48 -56 -119 -92q-68 -34 -150 -34q-148 0 -234 62q-87 62 -143 166z" />
<glyph unicode="6" horiz-adv-x="978" d="M109 682q0 131 21 257q20 121 72 225q50 99 131 161q82 62 202 62q107 0 183 -50q77 -51 122 -131l-72 -75q-40 71 -91 110q-53 41 -142 41q-91 0 -150 -55t-94 -144q-36 -91 -50 -194q-16 -114 -16 -211v-49q17 36 48 76q30 39 69 69q40 31 87 50q49 20 103 20 q75 0 138 -27q64 -27 110 -81q48 -55 74 -136q27 -82 27 -190q0 -82 -24 -160t-70 -139q-48 -63 -114 -99q-68 -37 -161 -37q-116 0 -195 61q-75 58 -123 160q-47 99 -66 226q-19 124 -19 260zM229 506q5 -65 19 -136q16 -78 46 -140t83 -107q50 -43 131 -43q68 0 116 30 q49 31 79 75q32 48 47 105q14 55 14 118q0 88 -20 153q-20 66 -53 104q-34 40 -81 58q-46 18 -100 18q-48 0 -89 -19q-43 -20 -78 -52q-36 -33 -64 -76q-31 -47 -50 -88z" />
<glyph unicode="7" horiz-adv-x="827" d="M57 1264v102h713v-78l-442 -1288h-123l436 1264h-584z" />
<glyph unicode="8" horiz-adv-x="964" d="M104 332q0 66 25 129q23 57 65 107q43 51 89 83q55 38 98 54q-46 17 -91 46q-47 30 -83 72t-61 98q-23 52 -23 121q0 86 30 151q30 64 79 107q50 44 116 65t135 21q67 0 132 -21t115 -65q53 -46 81 -107q31 -67 31 -151q0 -67 -24 -121q-26 -59 -60 -98q-35 -41 -82 -72 q-43 -29 -90 -46q44 -16 97 -54q44 -32 88 -82q42 -48 65 -106q24 -60 24 -129q0 -83 -27 -149q-26 -64 -77 -112q-49 -46 -119 -72t-154 -26q-85 0 -155 26t-119 72q-51 48 -77 111q-28 68 -28 148zM221 342q0 -64 21 -112q21 -49 56 -82q33 -32 84 -51q45 -17 101 -17 q55 0 100 17q51 19 83 51q36 36 56 82q21 48 21 112q0 77 -32 134t-77 97q-44 39 -87 60q-38 18 -64 24q-28 -6 -66 -24q-43 -21 -87 -60q-43 -39 -76 -97t-33 -134zM240 1032q0 -72 30 -123q28 -47 72 -85q37 -31 81 -51q35 -16 60 -21q27 6 61 21q42 19 80 51q40 34 70 85 q31 53 31 123q0 117 -68 183q-69 67 -174 67q-110 0 -177 -67q-66 -66 -66 -183z" />
<glyph unicode="9" horiz-adv-x="978" d="M98 954q0 82 24 160q25 81 69 139q46 61 116 99q68 37 162 37q116 0 194 -61q74 -58 122 -160q47 -99 66 -226q19 -124 19 -260q0 -131 -21 -257q-21 -125 -71 -225q-50 -101 -131 -161q-83 -62 -203 -62q-107 0 -183 50q-77 51 -122 131l72 75q40 -71 91 -110 q53 -41 142 -41q91 0 150 55q58 54 95 144q35 85 50 194q15 107 15 211v49q-17 -38 -46 -76q-31 -40 -70 -69q-43 -32 -88 -50q-49 -20 -104 -20q-74 0 -137 27q-64 27 -110 81q-48 55 -74 136q-27 82 -27 190zM215 956q0 -92 19 -153q20 -64 54 -104t81 -58t100 -18 q48 0 89 19q43 20 78 52t64 75t50 89q-5 65 -19 136q-15 76 -45 140q-29 62 -83 107q-52 43 -130 43q-67 0 -117 -30q-51 -31 -81 -75q-31 -46 -46 -106q-14 -56 -14 -117z" />
<glyph unicode=":" horiz-adv-x="444" d="M135 70q0 34 27 60q28 26 61 26q37 0 63 -26q25 -25 25 -60q0 -38 -25 -63t-63 -25q-35 0 -61 25q-27 25 -27 63zM135 915q0 35 27 62t61 27q37 0 63 -27q25 -26 25 -62q0 -35 -25 -61q-26 -27 -63 -27q-34 0 -61 27t-27 61z" />
<glyph unicode=";" horiz-adv-x="446" d="M117 -199q46 32 83 88q33 50 38 101q-5 0 -10 -1t-11 -1q-37 0 -59 24q-23 25 -23 60q0 33 25 60q24 26 61 26q41 0 71 -34t30 -97q0 -85 -43 -159q-44 -76 -103 -116zM135 915q0 35 27 62t61 27q37 0 63 -27q25 -26 25 -62q0 -35 -25 -61q-26 -27 -63 -27q-34 0 -61 27 t-27 61z" />
<glyph unicode="&#x3c;" horiz-adv-x="892" d="M59 647v76l775 389v-98l-668 -330l668 -326v-98z" />
<glyph unicode="=" horiz-adv-x="892" d="M59 442v82h775v-82h-775zM59 844v82h775v-82h-775z" />
<glyph unicode="&#x3e;" horiz-adv-x="892" d="M59 260v98l670 326l-670 330v98l775 -389v-76z" />
<glyph unicode="?" horiz-adv-x="790" d="M66 1233q61 73 142 113t187 40q79 0 136 -23q60 -24 104 -65q41 -38 66 -96q24 -56 24 -117q0 -71 -25 -129q-24 -54 -60 -100q-38 -48 -79 -83q-35 -30 -79 -76q-35 -37 -60 -80q-25 -44 -25 -97q0 -29 15 -59q16 -32 37 -49l-84 -52q-72 72 -72 166q0 68 23 114 q23 45 59 88q32 37 76 75q39 33 75 74q35 40 59 86q23 45 23 110q0 44 -14 79q-16 39 -43 68q-27 28 -71 47q-40 17 -95 17q-93 0 -149 -34q-62 -38 -105 -93zM301 70q0 34 27 60q28 26 61 26q37 0 63 -26q25 -25 25 -60q0 -38 -25 -63t-63 -25q-35 0 -61 25q-27 25 -27 63z " />
<glyph unicode="@" horiz-adv-x="1400" d="M72 471q0 165 60 317q61 154 162 267q103 115 234 183q133 69 281 69q119 0 212 -43q95 -44 164 -120q68 -76 106 -183q38 -108 38 -236q0 -130 -26 -228q-26 -99 -71 -173q-44 -72 -99 -111t-113 -39q-76 0 -118 47q-43 47 -44 113l-2 12q-45 -67 -116 -120 q-70 -52 -160 -52q-54 0 -97 17q-44 18 -79 54q-33 34 -53 90q-19 53 -19 128q0 107 34 208q35 103 92 179q59 79 137 126q79 48 167 48q82 0 133 -48t72 -114l26 125h97l-123 -584l-3 -21q-1 -9 -1 -22q0 -56 22 -79q23 -25 59 -25q28 0 65 27t72 84q33 55 58 146 q25 92 25 214q0 119 -34 212q-35 97 -94 163t-146 103q-85 36 -185 36q-136 0 -256 -65t-212 -174t-144 -245q-54 -142 -54 -284q0 -123 37 -224q38 -102 103 -175q67 -75 156 -114q90 -40 200 -40q96 0 177 32q75 30 151 85l32 -51q-84 -62 -177 -96q-89 -33 -191 -33 q-122 0 -224 45q-103 45 -176 126q-74 82 -114 194q-41 115 -41 249zM436 469q0 -96 42 -155q42 -58 124 -58q50 0 88 17q42 19 75 46t61 63q36 46 51 69l69 327q-7 31 -20 56q-14 27 -36 52q-21 24 -50 39q-28 15 -68 15q-72 0 -136 -44q-63 -44 -107 -113 q-45 -71 -68 -151q-25 -86 -25 -163z" />
<glyph unicode="A" horiz-adv-x="1009" d="M25 0l411 1366h137l412 -1366h-125l-98 338h-514l-98 -338h-125zM272 440h465l-231 793z" />
<glyph unicode="B" horiz-adv-x="1019" d="M154 0v1366h405q151 0 240 -92q88 -91 88 -256q0 -130 -60 -209q-61 -80 -145 -104q46 -7 91 -39q41 -30 72 -77q28 -43 47 -104q17 -54 17 -116q0 -172 -87 -271q-86 -98 -253 -98h-415zM268 102h283q120 0 180 74t60 201q0 53 -15 102q-15 51 -43 87q-30 39 -75 61 t-107 22h-283v-547zM268 752h275q60 0 101 19q44 20 70 54q27 35 41 82q13 45 13 101q0 53 -13 98q-14 47 -41 82q-26 33 -70 55q-42 21 -101 21h-275v-512z" />
<glyph unicode="C" horiz-adv-x="1071" d="M109 682q0 158 35 283q36 128 102 223q66 94 161 147q97 54 211 54q67 0 127 -19q58 -18 104 -51q43 -30 83 -77q34 -40 65 -93l-96 -49q-46 84 -117 135q-68 49 -166 49q-87 0 -159 -45q-71 -45 -123 -125q-53 -82 -79 -190q-28 -115 -28 -242q0 -125 28 -240 q26 -107 79 -191q51 -81 123 -126t159 -45q102 0 172 57q68 55 113 148l96 -49q-32 -62 -65 -103q-40 -50 -83 -83q-45 -35 -105 -55t-128 -20q-114 0 -211 54q-95 53 -161 147q-66 95 -102 223q-35 125 -35 283z" />
<glyph unicode="D" horiz-adv-x="1126" d="M154 0v1366h331q129 0 229 -53q97 -52 167 -146q67 -91 102 -217t35 -268q0 -144 -35 -270q-35 -124 -102 -216q-67 -91 -167 -144q-98 -52 -229 -52h-331zM268 102h217q102 0 181 44q78 44 129 123q50 78 76 185t26 228t-26 228t-76 185q-50 79 -129 124q-78 45 -181 45 h-217v-1162z" />
<glyph unicode="E" horiz-adv-x="927" d="M154 0v1366h667v-102h-553v-512h539v-103h-539v-547h553v-102h-667z" />
<glyph unicode="F" horiz-adv-x="903" d="M154 0v1366h667v-102h-553v-512h539v-103h-539v-649h-114z" />
<glyph unicode="G" horiz-adv-x="1132" d="M109 682q0 163 36 288q37 128 104 223q66 93 161 144q96 52 208 52q70 0 127 -18q60 -19 106 -49q49 -32 86 -75q43 -50 69 -94l-93 -49q-46 81 -120 131q-73 49 -175 49q-87 0 -159 -45q-71 -45 -123 -125q-53 -82 -79 -190q-28 -115 -28 -242t28 -242q26 -107 79 -191 q51 -81 123 -126t159 -45q99 0 169 40q73 42 112 91v364h-358v105h467v-512q-68 -92 -168 -141q-102 -50 -222 -50q-112 0 -208 52q-95 51 -161 144q-67 95 -104 223q-36 125 -36 288z" />
<glyph unicode="H" horiz-adv-x="1146" d="M154 0v1366h114v-612h611v612h114v-1366h-114v651h-611v-651h-114z" />
<glyph unicode="I" horiz-adv-x="421" d="M154 0v1366h114v-1366h-114z" />
<glyph unicode="J" horiz-adv-x="798" d="M20 111l64 88q39 -56 91 -87q53 -32 122 -32q111 0 172 65t61 189v1032h115v-1034q0 -94 -25 -159q-26 -68 -72 -111q-48 -45 -109 -65q-66 -22 -136 -22q-86 0 -156 32t-127 104z" />
<glyph unicode="K" horiz-adv-x="1005" d="M154 0v1366h114v-745l518 745h140l-467 -651l508 -715h-140l-436 633l-123 -174v-459h-114z" />
<glyph unicode="L" horiz-adv-x="823" d="M139 0v1366h115v-1264h510v-102h-625z" />
<glyph unicode="M" horiz-adv-x="1355" d="M154 0v1366h165l359 -1094l358 1094h166v-1366h-115v1188l-387 -1188h-45l-387 1188v-1188h-114z" />
<glyph unicode="N" horiz-adv-x="1142" d="M154 0v1366h114l606 -1112v1112h115v-1366h-110l-611 1128v-1128h-114z" />
<glyph unicode="O" horiz-adv-x="1208" d="M109 682q0 150 31 275q31 126 96 225q62 95 155 151q92 56 213 56q120 0 214 -56t156 -151q61 -93 95 -225q33 -127 33 -275q0 -147 -33 -275q-34 -132 -95 -225q-62 -95 -156 -151t-214 -56q-121 0 -213 56q-93 56 -155 151q-65 99 -96 225q-31 125 -31 275zM229 682 q0 -121 25 -235q23 -104 72 -191q46 -82 116 -129t162 -47t162 47q71 48 118 129q48 83 72 191q25 114 25 235q0 120 -25 236q-24 109 -72 191q-48 81 -118 128t-162 47t-162 -47q-69 -47 -116 -128q-49 -86 -72 -191q-25 -116 -25 -236z" />
<glyph unicode="P" horiz-adv-x="958" d="M154 0v1366h376q87 0 156 -32q68 -32 113 -87q44 -54 67 -128t23 -152t-23 -152q-23 -72 -67 -127q-45 -55 -113 -87q-69 -32 -156 -32h-262v-569h-114zM268 672h254q117 0 183 83q65 81 65 214q0 131 -65 212q-66 83 -183 83h-254v-592z" />
<glyph unicode="Q" horiz-adv-x="1208" d="M109 682q0 150 31 275q31 126 96 225q62 95 155 151q92 56 213 56q120 0 214 -56t156 -151q61 -93 95 -225q33 -127 33 -275q0 -175 -45 -320q-44 -142 -131 -243l84 -127l-84 -55l-78 114q-104 -76 -244 -76q-121 0 -213 56q-93 56 -155 151q-65 99 -96 225 q-31 125 -31 275zM229 682q0 -121 25 -235q23 -104 72 -191q46 -82 116 -129t162 -47q102 0 184 63l-174 265l86 53l160 -242q60 84 90 203q31 122 31 260q0 120 -25 236q-24 109 -72 191q-48 81 -118 128t-162 47t-162 -47q-69 -47 -116 -128q-49 -86 -72 -191 q-25 -116 -25 -236z" />
<glyph unicode="R" horiz-adv-x="1005" d="M154 0v1366h378q77 0 143 -27q68 -28 113 -77q49 -53 75 -125q28 -76 28 -168q0 -89 -25 -161q-24 -68 -65 -117q-40 -48 -92 -75q-48 -26 -107 -32l303 -584h-133l-285 569h-219v-569h-114zM268 672h254q117 0 183 83q65 81 65 214q0 131 -65 212q-66 83 -183 83h-254 v-592z" />
<glyph unicode="S" horiz-adv-x="940" d="M72 145l69 88q50 -63 130 -108q81 -45 184 -45q73 0 126 21q48 19 86 57q34 34 49 81t15 95q0 94 -46 152q-49 61 -115 103q-74 47 -149 80q-81 36 -150 84q-67 47 -114 116q-46 68 -46 178q0 79 28 141t79 107t117 69q69 25 144 25q112 0 196 -37t146 -105l-65 -86 q-52 65 -125 94t-154 29q-52 0 -96 -16q-43 -16 -79 -47q-32 -28 -53 -74q-20 -45 -20 -96q0 -80 46 -132q49 -55 115 -94q76 -44 149 -79q78 -37 148 -90q69 -52 115 -127q46 -74 46 -189q0 -68 -23 -135t-70 -117q-49 -52 -122 -82q-76 -31 -178 -31q-125 0 -222 47 q-96 47 -161 123z" />
<glyph unicode="T" horiz-adv-x="890" d="M55 1264v102h783v-102h-336v-1264h-115v1264h-332z" />
<glyph unicode="U" horiz-adv-x="1130" d="M154 430v936h114v-936q0 -178 78 -265t219 -87t219 87t78 265v936h115v-936q0 -224 -108 -339q-108 -116 -304 -116t-304 116q-107 114 -107 339z" />
<glyph unicode="V" horiz-adv-x="1009" d="M25 1366h125l356 -1225l354 1225h125l-412 -1366h-137z" />
<glyph unicode="W" horiz-adv-x="1421" d="M41 1366h123l246 -1182l249 1182h103l250 -1182l245 1182h123l-301 -1366h-127l-241 1149l-244 -1149h-125z" />
<glyph unicode="X" horiz-adv-x="1009" d="M25 0l411 696l-389 670h137l320 -569l321 569h136l-390 -668l412 -698h-133l-346 600l-344 -600h-135z" />
<glyph unicode="Y" horiz-adv-x="989" d="M16 1366h131l349 -666l348 666h129l-420 -780v-586h-115v586z" />
<glyph unicode="Z" horiz-adv-x="927" d="M86 0v100l608 1164h-608v102h741v-98l-610 -1166h625v-102h-756z" />
<glyph unicode="[" horiz-adv-x="409" d="M74 -389v1778h301v-86h-213v-1606h213v-86h-301z" />
<glyph unicode="\" horiz-adv-x="481" d="M0 1407h90l393 -1448h-90z" />
<glyph unicode="]" horiz-adv-x="409" d="M35 -303h213v1606h-213v86h301v-1778h-301v86z" />
<glyph unicode="^" horiz-adv-x="772" d="M39 682l307 684h82l305 -684h-92l-254 596l-254 -596h-94z" />
<glyph unicode="_" horiz-adv-x="864" d="M-6 -82h876v-86h-876v86z" />
<glyph unicode="`" horiz-adv-x="356" d="M0 1434h119l237 -295h-80z" />
<glyph unicode="a" horiz-adv-x="901" d="M94 305q0 75 24 137q25 63 64 104q39 40 94 64q54 23 115 23q74 0 144 -31q67 -30 118 -102v194q0 111 -55 170q-56 60 -156 60q-72 0 -132 -30t-120 -99l-53 73q67 76 146 111t170 35q141 0 223 -75t82 -234v-705h-105v113q-51 -72 -118 -105t-144 -33q-61 0 -115 23 q-56 24 -94 65q-40 43 -64 105t-24 137zM203 303q0 -54 14 -95q15 -44 42 -78q25 -32 69 -53q42 -20 92 -20q69 0 131 32q61 31 102 104v221q-40 71 -102 104q-61 33 -131 33q-50 0 -92 -20q-44 -21 -69 -53q-27 -35 -42 -79q-14 -42 -14 -96z" />
<glyph unicode="b" d="M145 0v1366h103v-528q46 85 118 131q71 45 148 45q83 0 150 -38q64 -36 109 -108q44 -69 68 -165q23 -91 23 -209q0 -119 -23 -210q-24 -94 -68 -164t-109 -107q-67 -38 -150 -38q-81 0 -153 49q-70 48 -113 123v-147h-103zM248 250q16 -39 41 -70q28 -34 58 -57 q33 -25 70 -40t79 -15q67 0 114 33q50 35 81 93q32 60 47 136q16 83 16 164q0 80 -16 163q-15 77 -47 137q-31 58 -81 93t-114 35q-39 0 -79 -16q-38 -15 -70 -41t-58 -59q-25 -32 -41 -69v-487z" />
<glyph unicode="c" horiz-adv-x="819" d="M98 496q0 108 27 202q27 93 77 165q49 69 123 111q71 40 164 40q99 0 160 -36q63 -37 109 -93l-62 -72q-44 60 -91 84q-50 25 -107 25q-71 0 -126 -35q-54 -35 -90 -93q-37 -61 -55 -136q-18 -76 -18 -162t18 -163q17 -73 55 -136q36 -61 90 -95q53 -34 126 -34 q59 0 107 24q47 24 91 84l62 -72q-45 -58 -109 -94q-62 -35 -160 -35q-91 0 -164 41t-123 112q-50 72 -77 165q-27 95 -27 203z" />
<glyph unicode="d" d="M98 494q0 114 24 209q25 98 67 165q45 71 110 108q67 38 150 38q77 0 148 -45t116 -131v528h104v-1366h-104v147q-39 -74 -113 -123t-151 -49q-83 0 -150 38q-66 38 -110 107q-42 67 -67 164q-24 94 -24 210zM209 494q0 -86 15 -164q15 -76 47 -136q31 -58 80 -93 q46 -33 116 -33q40 0 77 15q35 14 69 40t58 57q26 34 42 70v487q-17 35 -42 69q-22 30 -58 59q-33 26 -69 41q-40 16 -77 16q-67 0 -116 -35t-80 -93q-32 -60 -47 -137q-15 -78 -15 -163z" />
<glyph unicode="e" horiz-adv-x="950" d="M98 496q0 106 27 201q28 98 76 165q51 72 120 111q71 41 160 41q96 0 168 -42q71 -41 118 -113q47 -71 69 -165q22 -92 22 -200v-33h-649q2 -87 22 -157q22 -74 60 -126q41 -55 94 -84q57 -31 127 -31q71 0 135 35q65 36 111 101l61 -62q-59 -75 -136 -119 q-76 -43 -175 -43q-96 0 -173 39q-75 38 -129 109q-53 69 -80 165q-28 98 -28 208zM209 543h543q0 59 -16 131q-14 65 -47 124q-31 55 -84 92q-53 36 -126 36t-123 -37q-53 -39 -83 -93q-32 -57 -48 -124q-16 -65 -16 -129z" />
<glyph unicode="f" horiz-adv-x="489" d="M45 897v92h131v139q0 120 61 190q59 68 166 68q44 0 83 -13q40 -13 75 -48l-47 -80q-43 49 -100 49q-68 0 -101 -44q-32 -42 -32 -122v-139h170v-92h-170v-897h-105v897h-131z" />
<glyph unicode="g" d="M98 496q0 116 24 210q24 95 67 163q44 69 110 107q67 38 150 38q77 0 148 -45t116 -131v151h104v-1016q0 -101 -29 -174q-28 -72 -77 -116q-51 -46 -115 -65t-141 -19q-99 0 -171 26q-75 27 -147 99l56 86q99 -119 260 -119q57 0 102 16q50 18 82 50q34 34 55 88t21 128 v183q-40 -76 -113 -126t-151 -50q-85 0 -150 37q-66 37 -110 106q-42 66 -67 163q-24 94 -24 210zM209 496q0 -86 15 -163q15 -76 47 -134q31 -56 80 -91q47 -34 116 -34q40 0 77 15q36 15 69 41q35 28 58 58q25 32 42 68v481q-17 35 -42 69q-22 30 -58 59q-33 26 -69 41 q-40 16 -77 16q-69 0 -116 -34q-50 -36 -80 -92q-32 -60 -47 -137q-15 -78 -15 -163z" />
<glyph unicode="h" horiz-adv-x="921" d="M145 0v1366h103v-522q22 33 54 63q35 33 69 55q31 20 79 37q42 15 85 15q123 0 183 -62t60 -202v-750h-104v729q0 109 -46 151t-124 42q-40 0 -77 -15t-72 -39q-32 -22 -61 -56q-30 -36 -46 -64v-748h-103z" />
<glyph unicode="i" horiz-adv-x="393" d="M117 1225q0 35 23 57q25 23 57 23q34 0 57 -23q22 -22 22 -57q0 -34 -22 -57t-57 -23q-34 0 -57 23t-23 57zM145 0v989h103v-989h-103z" />
<glyph unicode="j" horiz-adv-x="393" d="M-129 -328l51 76q16 -21 42 -40q24 -17 61 -17q53 0 87 36q33 34 33 126v1136h103v-1136q0 -135 -57 -195q-56 -59 -160 -59q-53 0 -91 18q-41 19 -69 55zM117 1225q0 35 23 57q25 23 57 23q34 0 57 -23q22 -22 22 -57q0 -34 -22 -57t-57 -23q-34 0 -57 23t-23 57z" />
<glyph unicode="k" horiz-adv-x="870" d="M145 0v1366h103v-952l461 575h122l-358 -446l356 -543h-124l-302 471l-155 -192v-279h-103z" />
<glyph unicode="l" horiz-adv-x="393" d="M145 0v1366h103v-1366h-103z" />
<glyph unicode="m" horiz-adv-x="1372" d="M145 0v989h103v-145q15 26 44 58q26 29 62 54t77 41q43 17 85 17q99 0 152 -50q52 -49 63 -128q17 33 47 66t66 56q41 26 78 40q43 16 84 16q107 0 164 -62q57 -61 57 -194v-758h-105v737q0 91 -36 137q-37 48 -113 48q-35 0 -70 -15q-36 -15 -65 -39q-32 -25 -58 -56 t-43 -64v-748h-104v737q0 91 -36 137q-37 48 -114 48q-35 0 -69 -15q-38 -16 -66 -39q-30 -24 -56 -56q-28 -34 -44 -64v-748h-103z" />
<glyph unicode="n" horiz-adv-x="921" d="M145 0v989h103v-145q22 33 54 63q35 33 69 55q31 20 79 37q42 15 85 15q123 0 183 -65t60 -201v-748h-104v725q0 111 -46 154t-124 43q-40 0 -77 -15t-72 -39q-32 -22 -61 -56q-30 -36 -46 -64v-748h-103z" />
<glyph unicode="o" d="M98 496q0 100 25 198q23 92 73 165q49 72 119 113q72 42 166 42t166 -42q71 -42 120 -113q50 -73 73 -165q24 -95 24 -198q0 -106 -24 -200t-73 -166q-49 -71 -120 -113q-72 -42 -166 -42t-166 42q-70 41 -119 113t-73 166q-25 98 -25 200zM209 496q0 -82 16 -158 q16 -78 49 -137t84 -97q49 -36 123 -36t123 36q51 37 85 97q34 59 49 137q16 83 16 158q0 74 -16 156q-15 77 -49 136q-34 60 -85 97q-50 37 -123 37t-123 -37q-51 -38 -84 -97q-32 -59 -49 -136q-16 -74 -16 -156z" />
<glyph unicode="p" horiz-adv-x="958" d="M145 -377v1366h103v-147q44 77 113 124q71 48 153 48q83 0 150 -38q65 -37 109 -107q45 -71 68 -163q23 -91 23 -210t-23 -210q-24 -96 -68 -165q-45 -72 -109 -108q-67 -38 -150 -38q-77 0 -148 45t-118 132v-529h-103zM248 252q16 -37 41 -69q26 -33 58 -59t70 -41 q37 -15 79 -15q65 0 114 34t81 94t47 136q16 83 16 164q0 80 -16 163q-15 77 -47 137q-31 57 -81 92q-49 34 -114 34q-39 0 -79 -16q-37 -15 -70 -40q-30 -23 -58 -57q-24 -30 -41 -68v-489z" />
<glyph unicode="q" horiz-adv-x="958" d="M94 496q0 116 24 210q24 95 67 163q44 69 110 107q67 38 149 38t153 -48q72 -49 112 -124v147h104v-1366h-104v529q-46 -87 -116 -132q-71 -45 -149 -45q-82 0 -149 38q-65 37 -110 108q-42 67 -67 165q-24 94 -24 210zM205 496q0 -86 15 -164q15 -76 47 -136t81 -94 t115 -34q39 0 77 15q35 14 70 41q36 28 59 59q24 33 40 69v489q-16 37 -40 68q-25 32 -59 57q-37 27 -70 40q-40 16 -77 16q-66 0 -115 -34q-50 -35 -81 -92q-32 -60 -47 -137q-15 -78 -15 -163z" />
<glyph unicode="r" horiz-adv-x="569" d="M145 0v989h103v-168q50 83 120 136t164 53v-113q-14 2 -21 2h-24q-33 0 -71 -15q-35 -14 -69 -40q-28 -21 -58 -58q-26 -32 -41 -65v-721h-103z" />
<glyph unicode="s" horiz-adv-x="772" d="M66 115l59 73q41 -53 104 -89t148 -36q92 0 151 51q58 50 58 132q0 65 -37 105t-91 70q-50 28 -119 55q-64 25 -119 62q-54 36 -91 88t-37 136q0 52 21 99q21 46 59 80q37 33 93 53q55 20 122 20q96 0 166 -35q71 -35 117 -92l-56 -72q-39 55 -96 82q-61 29 -131 29 q-91 0 -143 -47q-51 -47 -51 -115q0 -61 36 -97q40 -40 93 -66q64 -31 118 -53q61 -25 119 -64q54 -36 92 -93q37 -55 37 -143q0 -119 -83 -196t-226 -77q-102 0 -177 34q-76 34 -136 106z" />
<glyph unicode="t" horiz-adv-x="507" d="M35 897v92h135v271h102v-271h170v-92h-170v-702q0 -59 20 -94q19 -33 66 -33q30 0 52 12t39 33l40 -78q-27 -27 -60 -43q-36 -17 -87 -17q-90 0 -131 53t-41 154v715h-135z" />
<glyph unicode="u" horiz-adv-x="921" d="M145 240v749h103v-727q0 -110 46 -152t126 -42q78 0 147 51t107 119v751h104v-989h-104v141q-45 -65 -122 -116q-76 -50 -165 -50q-122 0 -182 62q-60 61 -60 203z" />
<glyph unicode="v" horiz-adv-x="802" d="M20 989h115l266 -866l269 866h112l-323 -989h-117z" />
<glyph unicode="w" horiz-adv-x="1263" d="M35 989h110l211 -842l226 842h98l225 -842l213 842h111l-266 -989h-103l-229 846l-228 -846h-102z" />
<glyph unicode="x" horiz-adv-x="804" d="M35 0l305 504l-289 485h119l233 -405l232 405h119l-289 -485l307 -504h-119l-250 426l-251 -426h-117z" />
<glyph unicode="y" horiz-adv-x="802" d="M20 989h115l266 -862l269 862h112l-399 -1214q-33 -95 -84 -136q-50 -40 -127 -40q-25 0 -48 4q-28 5 -42 10l18 94q15 -8 34 -12q17 -4 32 -4q45 0 71 23q28 25 50 89l59 177z" />
<glyph unicode="z" horiz-adv-x="776" d="M96 0v86l453 811h-453v92h578v-84l-455 -813h463v-92h-586z" />
<glyph unicode="{" horiz-adv-x="454" d="M12 461v78q53 0 80 44q27 43 27 101v477q0 53 17 94q18 44 46 72q28 29 66 45q39 17 76 17h96v-86h-96q-46 0 -81 -39q-34 -38 -34 -103v-481q0 -63 -22 -112q-20 -45 -72 -68q51 -22 72 -69q22 -49 22 -112v-481q0 -61 34 -101t81 -40h96v-86h-96q-40 0 -76 16 q-38 17 -66 45q-27 27 -46 71q-17 40 -17 95v477q0 59 -27 102q-27 44 -80 44z" />
<glyph unicode="|" horiz-adv-x="393" d="M154 -41v1448h86v-1448h-86z" />
<glyph unicode="}" horiz-adv-x="454" d="M35 -303h94q48 0 82 40q35 41 35 101v481q0 68 20 112q21 47 72 69q-52 23 -72 68q-20 44 -20 112v481q0 63 -35 103q-35 39 -82 39h-94v86h94q37 0 76 -17q36 -16 65 -45q28 -28 46 -72q18 -43 18 -94v-477q0 -59 26 -101q27 -44 80 -44v-78q-53 0 -80 -44 q-26 -42 -26 -102v-477q0 -53 -18 -95q-19 -44 -46 -71q-29 -29 -65 -45t-76 -16h-94v86z" />
<glyph unicode="~" horiz-adv-x="907" d="M57 887q6 77 20 169q14 86 40 152q27 68 70 111t112 43q55 0 90 -30t57 -75q23 -46 36 -97q11 -44 29 -97q15 -44 38 -75q23 -30 59 -30q72 0 105 104t51 304l86 -8q-6 -79 -20 -170q-15 -93 -39 -155q-26 -66 -71 -111q-43 -43 -112 -43q-58 0 -91 29q-33 28 -56 75 q-21 43 -37 96q-18 60 -30 97q-13 40 -37 74q-21 30 -58 30q-71 0 -104 -103q-34 -107 -52 -303z" />
<glyph unicode="&#xa1;" horiz-adv-x="446" d="M135 920q0 36 26 62t62 26q37 0 63 -26q25 -25 25 -62q0 -36 -25 -61t-63 -25q-37 0 -62 25q-26 26 -26 61zM156 -377l26 1012h82l27 -1012h-135z" />
<glyph unicode="&#xa2;" horiz-adv-x="819" d="M98 496q0 94 22 184q21 85 62 155q38 65 102 113q60 45 138 60v149h90v-143q87 -5 143 -40q58 -37 103 -89l-62 -72q-41 54 -86 79t-98 30v-854q54 5 98 28q45 24 86 80l62 -72q-43 -55 -103 -91q-55 -33 -143 -38v-180h-90v187q-80 15 -138 59q-63 47 -102 114 q-42 71 -62 155q-22 91 -22 186zM209 496q0 -77 13 -142q14 -69 40 -123q27 -55 67 -95q39 -39 93 -56v829q-54 -17 -93 -56q-40 -40 -67 -95q-26 -53 -40 -122q-13 -64 -13 -140z" />
<glyph unicode="&#xa3;" horiz-adv-x="886" d="M49 549v84h205q-10 16 -52 74q-33 46 -49 79q-21 44 -36 96t-15 117q0 77 27 146q28 71 75 124q49 55 115 86t150 31q115 0 200 -58t124 -161l-93 -51q-13 37 -31 64q-21 32 -48 55q-29 24 -66 39q-35 14 -80 14q-50 0 -94 -19q-45 -19 -81 -57q-35 -36 -56 -91 q-21 -54 -21 -124q0 -62 16 -115q15 -51 39 -92q25 -44 51 -80q32 -44 52 -77h233v-84h-194q18 -50 18 -113q0 -94 -45 -171q-46 -77 -108 -128q47 21 94 21q40 0 76 -13q31 -11 61 -27q38 -20 58 -28q30 -12 67 -12q55 0 102 24t66 54l51 -90q-33 -39 -93 -66t-132 -27 q-59 0 -95 15q-47 20 -65 30q-19 11 -59 31q-28 14 -78 14q-43 0 -94 -21q-53 -22 -105 -56l-45 92q117 60 178 151q62 92 62 191q0 34 -8 68q-6 26 -21 61h-256z" />
<glyph unicode="&#xa4;" horiz-adv-x="1101" d="M53 496v84h92q-4 21 -4 50v52q0 37 1 54q2 34 3 52h-92v84h103q22 122 63 210q44 95 107 163q65 70 145 106q84 38 180 38q67 0 127 -19q58 -18 104 -51q43 -30 83 -77q34 -40 65 -93l-96 -49q-46 84 -117 135q-68 49 -166 49q-72 0 -132 -30t-108 -84q-47 -53 -82 -130 q-33 -73 -50 -168h462v-84h-475q-1 -18 -3 -52q-1 -17 -1 -54v-52q0 -29 4 -50h475v-84h-465q17 -93 51 -169q35 -78 82 -132q48 -55 109 -85q62 -30 133 -30q101 0 171 57q70 56 114 148l96 -49q-32 -62 -65 -103q-40 -50 -83 -83q-45 -35 -105 -55t-128 -20q-97 0 -181 38 q-83 38 -146 107q-64 70 -107 164q-43 93 -61 212h-103z" />
<glyph unicode="&#xa5;" horiz-adv-x="989" d="M16 1366h131l349 -666l348 666h129l-377 -698h350v-82h-393v-246h393v-82h-393v-258h-115v258h-395v82h395v246h-395v82h350z" />
<glyph unicode="&#xa6;" horiz-adv-x="393" d="M154 -41v647h86v-647h-86zM154 760v647h86v-647h-86z" />
<glyph unicode="&#xa7;" horiz-adv-x="774" d="M66 -25l59 70q34 -43 97 -85t155 -42t150 52q59 53 59 134q0 67 -37 107q-41 44 -91 72q-56 31 -119 56q-66 26 -119 60t-91 87q-37 52 -37 137q0 88 58 155q56 65 155 86q-110 56 -161 118q-52 62 -52 155q0 109 79 179t210 70q106 0 173 -35q71 -37 116 -91l-58 -66 q-46 59 -104 85t-123 26q-85 0 -139 -48q-53 -47 -53 -120q0 -64 36 -100q37 -37 93 -66q67 -34 118 -55q68 -27 119 -62q55 -37 92 -92t37 -144q0 -77 -42 -143q-41 -64 -132 -102q87 -52 130 -113q44 -62 44 -154q0 -63 -22 -111q-22 -49 -64 -86q-39 -35 -98 -55 q-58 -20 -125 -20q-117 0 -188 39q-69 38 -125 102zM190 631q0 -41 18 -73q19 -34 50 -56q34 -25 77 -47q39 -20 97 -45q156 72 156 198q0 48 -19 84q-18 35 -46 61q-26 25 -61 43q-25 13 -65 29q-67 -16 -101 -34q-39 -20 -64 -47q-22 -24 -32 -54q-10 -32 -10 -59z" />
<glyph unicode="&#xa8;" horiz-adv-x="532" d="M18 1231q0 31 23 52q24 22 53 22q30 0 52 -22t22 -52q0 -29 -22 -53q-21 -23 -52 -23q-30 0 -53 23t-23 53zM362 1231q0 31 23 52q24 22 53 22q30 0 54 -22q22 -21 22 -52t-22 -53q-23 -23 -54 -23q-30 0 -53 23t-23 53z" />
<glyph unicode="&#xa9;" horiz-adv-x="1593" d="M90 684q0 149 55 275q56 129 152 225q95 95 225 151t275 56q146 0 275 -56t224 -151q96 -96 152 -225q55 -126 55 -275q0 -146 -55 -274q-56 -130 -152 -226q-95 -95 -224 -151t-275 -56q-145 0 -275 56t-225 151q-96 96 -152 226q-55 128 -55 274zM147 684 q0 -131 52 -252q51 -119 139 -207t207 -139t252 -51t252 51q118 51 206 139q89 89 140 207t51 252t-51 252t-140 207q-88 88 -206 139q-119 51 -252 51t-252 -51t-207 -139t-139 -207q-52 -121 -52 -252zM373 686q0 95 34 175q35 81 91 139q58 59 135 92q76 32 168 32 q98 0 169 -34q72 -35 126 -99l-45 -45q-41 54 -110 85q-70 32 -140 32q-71 0 -137 -27q-68 -28 -115 -75q-48 -48 -79 -119q-30 -69 -30 -156q0 -83 30 -152q30 -70 79 -120q51 -53 115 -79q68 -28 137 -28q73 0 141 33t109 86l45 -45q-55 -66 -127 -100q-73 -35 -168 -35 q-91 0 -168 34q-80 36 -135 93q-57 60 -91 140t-34 173z" />
<glyph unicode="&#xaa;" horiz-adv-x="661" d="M78 866q0 101 59 156t142 55q114 0 182 -86v123q0 72 -42 107q-41 34 -102 34q-41 0 -85 -18t-85 -70l-41 62q91 98 224 98q99 0 157 -53t58 -170v-436h-84v71q-67 -88 -182 -88q-81 0 -142 58q-59 56 -59 157zM164 866q0 -65 38 -109t103 -44q49 0 88 20q41 21 68 66 v133q-26 43 -68 65q-40 21 -88 21q-65 0 -103 -44t-38 -108z" />
<glyph unicode="&#xab;" horiz-adv-x="716" d="M61 498l256 362h105l-256 -362l256 -369h-105zM295 498l256 362h104l-256 -362l256 -369h-104z" />
<glyph unicode="&#xac;" horiz-adv-x="894" d="M59 844v82h775v-484h-86v402h-689z" />
<glyph unicode="&#xad;" horiz-adv-x="544" d="M61 449v94h422v-94h-422z" />
<glyph unicode="&#xae;" horiz-adv-x="1011" d="M72 952q0 94 33 170q36 82 94 139q59 58 138 92q76 33 169 33q94 0 170 -33q81 -35 138 -92q56 -56 92 -139q34 -78 34 -170q0 -91 -34 -169q-34 -79 -92 -138q-56 -57 -138 -93q-78 -34 -170 -34q-91 0 -169 34q-79 34 -138 93q-60 60 -94 138q-33 76 -33 169zM127 952 q0 -77 30 -146q30 -68 81 -121q50 -52 120 -82q69 -30 148 -30q78 0 147 30q72 31 121 82q51 53 81 121q30 69 30 146q0 80 -30 149t-81 120q-50 50 -121 81q-67 29 -147 29q-81 0 -148 -29q-69 -30 -120 -81t-81 -120t-30 -149zM342 702v498h203q62 0 108 -41 q45 -41 45 -110q0 -42 -15 -70q-14 -26 -37 -46q-19 -17 -43 -25q-20 -7 -32 -7l134 -199h-78l-129 197h-95v-197h-61zM403 958h142q32 0 61 26t29 65q0 40 -29 67t-61 27h-142v-185z" />
<glyph unicode="&#xaf;" horiz-adv-x="622" d="M0 1210v76h623v-76h-623z" />
<glyph unicode="&#xb0;" horiz-adv-x="575" d="M51 1149q0 46 19 92q17 42 50 76q32 33 75 51t92 18t92 -18t76 -51t51 -76t18 -92t-18 -92t-51 -76t-76 -51q-46 -19 -92 -19t-92 19q-43 18 -75 51q-33 34 -50 76q-19 46 -19 92zM129 1149q0 -66 46 -112t112 -46q30 0 61 13q29 12 50 33t35 50q13 27 13 62 q0 66 -47 113t-112 47t-112 -47q-46 -46 -46 -113z" />
<glyph unicode="&#xb1;" horiz-adv-x="892" d="M59 53v82h775v-82h-775zM59 655v82h342v373h91v-373h342v-82h-342v-385h-91v385h-342z" />
<glyph unicode="&#xb2;" horiz-adv-x="653" d="M84 1565q39 60 104 95q62 34 144 34q46 0 90 -15q43 -15 76 -42q32 -26 52 -68q19 -39 19 -96q0 -55 -24 -112q-22 -53 -71 -119q-42 -57 -114 -137l-153 -167h366v-76h-487v70l176 185q82 88 122 140q47 61 72 113q23 49 23 100q0 74 -46 111t-105 37q-61 0 -110 -29 t-77 -78z" />
<glyph unicode="&#xb3;" horiz-adv-x="653" d="M70 983l59 53q30 -52 79 -82q48 -30 114 -30q78 0 122 44q43 43 43 119q0 46 -15 76t-40 49q-27 20 -57 27q-35 8 -68 8h-38q-15 0 -25 -2v76q10 -2 25 -2h36q71 0 121 36q49 36 49 113q0 76 -45 113q-44 37 -111 37q-59 0 -103 -27q-47 -29 -79 -75l-57 51q40 59 101 92 q64 35 143 35q102 0 172 -55q69 -54 69 -162q0 -82 -50 -130q-51 -49 -105 -61q30 -5 56 -18q31 -15 54 -40q25 -26 41 -63q17 -39 17 -82q0 -104 -66 -170q-65 -65 -188 -65q-93 0 -157 40q-65 41 -97 95z" />
<glyph unicode="&#xb4;" horiz-adv-x="356" d="M0 1139l238 295h118l-276 -295h-80z" />
<glyph unicode="&#xb5;" horiz-adv-x="921" d="M145 -377v1366h103v-727q0 -110 46 -153t126 -43q42 0 77 14q39 16 70 38q36 26 61 54q28 31 46 66v751h104v-989h-104v141q-45 -65 -122 -116q-76 -50 -165 -50q-81 0 -139 29v-381h-103z" />
<glyph unicode="&#xb6;" horiz-adv-x="919" d="M55 1014q0 72 28 137q27 63 76 112q48 48 111 75q65 28 138 28h344v-1571h-76v1495h-193v-1495h-75v867q-75 0 -138 27q-61 26 -111 76q-49 49 -76 112q-28 65 -28 137z" />
<glyph unicode="&#xb7;" horiz-adv-x="446" d="M135 502q0 34 27 60q28 26 61 26q37 0 63 -26q25 -25 25 -60q0 -38 -25 -63t-63 -25q-35 0 -61 25q-27 25 -27 63z" />
<glyph unicode="&#xb8;" horiz-adv-x="364" d="M0 -328l33 66q36 -32 68 -44q33 -13 73 -13q48 0 82 24q35 24 35 68q0 36 -20 58t-54 22q-42 0 -72 -35l-55 32l64 173h75l-53 -140q29 23 68 23q52 0 86 -36q35 -37 35 -97q0 -72 -56 -116t-135 -44q-55 0 -99 17q-47 18 -75 42z" />
<glyph unicode="&#xb9;" horiz-adv-x="425" d="M35 1483l192 198h80v-819h-90v701l-129 -138z" />
<glyph unicode="&#xba;" horiz-adv-x="702" d="M80 989q0 69 18 131q18 60 53 108q33 45 83 72q49 27 116 27q66 0 117 -27q54 -28 86 -72q34 -45 52 -108q18 -62 18 -131q0 -67 -18 -129q-18 -61 -52 -107q-35 -47 -86 -74q-53 -28 -117 -28q-65 0 -116 28q-47 26 -83 74t-53 107q-18 62 -18 129zM170 989 q0 -57 11 -100q12 -47 33 -84q22 -39 55 -59q35 -21 81 -21t81 21q32 20 56 59q22 36 34 84q11 43 11 100q0 56 -11 100q-12 48 -34 83q-24 39 -56 58q-35 21 -81 21t-81 -21q-33 -20 -55 -58q-21 -37 -33 -83q-11 -44 -11 -100z" />
<glyph unicode="&#xbb;" horiz-adv-x="716" d="M61 129l256 369l-256 362h105l256 -362l-256 -369h-105zM295 129l256 369l-256 362h104l256 -362l-256 -369h-104z" />
<glyph unicode="&#xbc;" horiz-adv-x="1318" d="M35 1167l192 199h80v-819h-90v700l-129 -137zM217 0l715 1366h84l-715 -1366h-84zM729 219v74l315 526h115v-524h101v-76h-101v-219h-88v219h-342zM813 295h258v430z" />
<glyph unicode="&#xbd;" horiz-adv-x="1390" d="M35 1167l192 199h80v-819h-90v700l-129 -137zM217 0l715 1366h84l-715 -1366h-84zM821 702q40 60 105 96q60 33 143 33q49 0 90 -14q43 -15 76 -42q32 -26 52 -68t20 -97q0 -52 -25 -111q-22 -53 -71 -119q-47 -64 -113 -137l-154 -167h367v-76h-488v70l176 185 q82 88 122 140q47 61 72 113q24 51 24 100q0 73 -47 111q-46 37 -105 37q-61 0 -110 -29q-47 -28 -76 -78z" />
<glyph unicode="&#xbe;" horiz-adv-x="1476" d="M70 668l59 53q30 -52 79 -82q50 -31 114 -31q78 0 122 44q43 43 43 120q0 46 -15 76t-40 49q-27 20 -57 27q-35 8 -68 8h-38q-15 0 -25 -2v76q10 -2 25 -2h36q73 0 121 35q49 36 49 114q0 75 -45 113q-44 37 -111 37q-59 0 -103 -27q-46 -28 -79 -76l-57 51q40 59 101 92 q64 35 143 35q103 0 172 -54t69 -163q0 -82 -50 -130q-49 -48 -105 -60q27 -5 56 -19q31 -15 54 -40q26 -27 41 -62q17 -39 17 -82q0 -104 -66 -170t-188 -66q-93 0 -157 40t-97 96zM375 0l715 1366h84l-715 -1366h-84zM887 219v74l315 526h115v-524h100v-76h-100v-219h-88 v219h-342zM971 295h258v430z" />
<glyph unicode="&#xbf;" horiz-adv-x="671" d="M66 -102q0 73 24 130q23 55 62 100q46 54 78 82q28 25 79 76q38 38 62 80t24 97q0 31 -14 59q-15 30 -39 51l84 50q38 -33 55 -76q17 -42 17 -88q0 -66 -24 -114t-58 -88q-30 -35 -76 -76q-45 -40 -76 -75q-33 -37 -58 -86q-24 -47 -24 -110q0 -42 15 -79q16 -40 43 -67 q30 -30 70 -47q42 -18 96 -18q93 0 149 34q60 36 107 95l63 -78q-60 -72 -142 -112q-84 -41 -188 -41q-79 0 -136 23q-59 24 -103 66q-43 41 -67 96q-23 52 -23 116zM313 920q0 36 27 62q28 26 61 26q37 0 63 -26q25 -25 25 -62q0 -36 -25 -61t-63 -25q-35 0 -61 25 q-27 25 -27 61z" />
<glyph unicode="&#xc0;" horiz-adv-x="1009" d="M25 0l411 1366h137l412 -1366h-125l-98 338h-514l-98 -338h-125zM256 1786h119l237 -295h-80zM272 440h465l-231 793z" />
<glyph unicode="&#xc1;" horiz-adv-x="1009" d="M25 0l411 1366h137l412 -1366h-125l-98 338h-514l-98 -338h-125zM272 440h465l-231 793zM399 1491l238 295h119l-277 -295h-80z" />
<glyph unicode="&#xc2;" horiz-adv-x="1009" d="M25 0l411 1366h137l412 -1366h-125l-98 338h-514l-98 -338h-125zM272 440h465l-231 793zM283 1491l168 295h106l174 -295h-74l-153 229l-148 -229h-73z" />
<glyph unicode="&#xc3;" horiz-adv-x="1009" d="M25 0l411 1366h137l412 -1366h-125l-98 338h-514l-98 -338h-125zM240 1499q0 61 10 108q11 51 31 87q21 37 51 58q31 22 71 22q51 0 78 -33q27 -34 45 -73q17 -38 36 -73q17 -32 52 -32q41 0 67 47t26 151h67q0 -60 -10 -107q-11 -51 -31 -87q-21 -38 -51 -59t-74 -21 q-49 0 -76 33q-28 35 -45 72q-17 38 -36 73q-18 33 -52 33q-40 0 -66 -47t-26 -152h-67zM272 440h465l-231 793z" />
<glyph unicode="&#xc4;" horiz-adv-x="1009" d="M25 0l411 1366h137l412 -1366h-125l-98 338h-514l-98 -338h-125zM258 1575q0 31 23 52q24 22 53 22q30 0 52 -22t22 -52q0 -29 -22 -53q-21 -23 -52 -23q-30 0 -53 23t-23 53zM272 440h465l-231 793zM602 1575q0 31 23 52q24 22 53 22t53 -22q23 -21 23 -52 q0 -30 -23 -53t-53 -23t-53 23t-23 53z" />
<glyph unicode="&#xc5;" horiz-adv-x="1009" d="M25 0l411 1366h137l412 -1366h-125l-98 338h-514l-98 -338h-125zM272 440h465l-231 793zM326 1599q0 39 14 70q15 33 39 57t57 39t70 15q75 0 127 -54q51 -52 51 -127q0 -77 -51 -129q-51 -53 -127 -53q-37 0 -70 15q-35 16 -57 38q-24 24 -39 59q-14 32 -14 70z M389 1599q0 -48 35 -83t82 -35q48 0 83 35q34 34 34 83q0 48 -34 82q-35 35 -83 35q-47 0 -82 -35t-35 -82z" />
<glyph unicode="&#xc6;" horiz-adv-x="1507" d="M33 0l651 1366h713v-102h-553v-512h538v-103h-538v-547h553v-102h-668v338h-416l-155 -338h-125zM356 440h373v793z" />
<glyph unicode="&#xc7;" horiz-adv-x="1071" d="M109 682q0 158 35 283q36 128 102 223q66 94 161 147q97 54 211 54q67 0 127 -19q58 -18 104 -51q43 -30 83 -77q34 -40 65 -93l-96 -49q-46 84 -117 135q-68 49 -166 49q-87 0 -159 -45q-71 -45 -123 -125q-53 -82 -79 -190q-28 -115 -28 -242q0 -125 28 -240 q26 -107 79 -191q51 -81 123 -126t159 -45q102 0 172 57q68 55 113 148l96 -49q-58 -109 -141 -180q-85 -73 -215 -79l-33 -86q29 23 68 23q52 0 86 -36q35 -37 35 -97q0 -72 -56 -116t-135 -44q-52 0 -99 18t-75 42l33 65q36 -31 69 -44t72 -13q48 0 82 24q35 24 35 68 q0 38 -19 58q-20 22 -55 22q-41 0 -71 -35l-56 33l43 121q-106 10 -191 67q-83 56 -145 151q-59 92 -91 216q-31 121 -31 268z" />
<glyph unicode="&#xc8;" horiz-adv-x="927" d="M154 0v1366h667v-102h-553v-512h539v-103h-539v-547h553v-102h-667zM242 1786h118l238 -295h-80z" />
<glyph unicode="&#xc9;" horiz-adv-x="927" d="M154 0v1366h667v-102h-553v-512h539v-103h-539v-547h553v-102h-667zM383 1491l238 295h118l-276 -295h-80z" />
<glyph unicode="&#xca;" horiz-adv-x="927" d="M154 0v1366h667v-102h-553v-512h539v-103h-539v-547h553v-102h-667zM266 1491l168 295h107l174 -295h-74l-154 229l-147 -229h-74z" />
<glyph unicode="&#xcb;" horiz-adv-x="927" d="M154 0v1366h667v-102h-553v-512h539v-103h-539v-547h553v-102h-667zM240 1575q0 31 22 52q24 22 53 22q31 0 53 -22q21 -21 21 -52t-21 -53q-21 -23 -53 -23q-30 0 -53 23q-22 22 -22 53zM584 1575q0 31 22 52q24 22 53 22q30 0 54 -22q22 -21 22 -52t-22 -53 q-23 -23 -54 -23q-30 0 -53 23q-22 22 -22 53z" />
<glyph unicode="&#xcc;" horiz-adv-x="421" d="M-37 1786h119l237 -295h-79zM154 0v1366h114v-1366h-114z" />
<glyph unicode="&#xcd;" horiz-adv-x="421" d="M106 1491l238 295h119l-277 -295h-80zM154 0v1366h114v-1366h-114z" />
<glyph unicode="&#xce;" horiz-adv-x="421" d="M-10 1491l168 295h106l174 -295h-73l-154 229l-148 -229h-73zM154 0v1366h114v-1366h-114z" />
<glyph unicode="&#xcf;" horiz-adv-x="421" d="M-35 1573q0 31 23 52q24 22 53 22q30 0 52 -22t22 -52q0 -29 -22 -53q-21 -23 -52 -23q-30 0 -53 23t-23 53zM154 0v1366h114v-1366h-114zM309 1573q0 31 23 52q24 22 53 22t53 -22q23 -21 23 -52q0 -30 -23 -53t-53 -23t-53 23t-23 53z" />
<glyph unicode="&#xd0;" horiz-adv-x="1175" d="M35 635v90h168v641h332q128 0 228 -53q97 -52 167 -146q67 -91 102 -217t35 -268q0 -144 -35 -270q-34 -124 -102 -216q-67 -91 -167 -144q-98 -52 -228 -52h-332v635h-168zM317 102h218q101 0 180 44q78 44 129 123q52 80 77 185q25 103 25 228t-25 228q-25 105 -77 185 q-50 79 -129 124q-78 45 -180 45h-218v-539h269v-90h-269v-533z" />
<glyph unicode="&#xd1;" horiz-adv-x="1142" d="M154 0v1366h114l606 -1112v1112h115v-1366h-110l-611 1128v-1128h-114zM299 1499q0 61 10 108q11 51 31 87q21 37 51 58q31 22 72 22q51 0 78 -33q27 -34 45 -73q17 -38 36 -73q17 -32 52 -32q40 0 66 47t26 151h68q0 -55 -11 -107q-11 -54 -30 -87q-21 -37 -52 -59 q-30 -21 -73 -21q-49 0 -76 33q-28 35 -45 72q-12 28 -37 73q-18 33 -51 33q-41 0 -67 -47q-25 -46 -25 -152h-68z" />
<glyph unicode="&#xd2;" horiz-adv-x="1208" d="M109 682q0 150 31 275q31 126 96 225q62 95 155 151q92 56 213 56q120 0 214 -56t156 -151q61 -93 95 -225q33 -127 33 -275q0 -147 -33 -275q-34 -132 -95 -225q-62 -95 -156 -151t-214 -56q-121 0 -213 56q-93 56 -155 151q-65 99 -96 225q-31 125 -31 275zM229 682 q0 -121 25 -235q23 -104 72 -191q46 -82 116 -129t162 -47t162 47q71 48 118 129q48 83 72 191q25 114 25 235q0 120 -25 236q-24 109 -72 191q-48 81 -118 128t-162 47t-162 -47q-69 -47 -116 -128q-49 -86 -72 -191q-25 -116 -25 -236zM358 1786h119l238 -295h-80z" />
<glyph unicode="&#xd3;" horiz-adv-x="1208" d="M109 682q0 150 31 275q31 126 96 225q62 95 155 151q92 56 213 56q120 0 214 -56t156 -151q61 -93 95 -225q33 -127 33 -275q0 -147 -33 -275q-34 -132 -95 -225q-62 -95 -156 -151t-214 -56q-121 0 -213 56q-93 56 -155 151q-65 99 -96 225q-31 125 -31 275zM229 682 q0 -121 25 -235q23 -104 72 -191q46 -82 116 -129t162 -47t162 47q71 48 118 129q48 83 72 191q25 114 25 235q0 120 -25 236q-24 109 -72 191q-48 81 -118 128t-162 47t-162 -47q-69 -47 -116 -128q-49 -86 -72 -191q-25 -116 -25 -236zM500 1491l237 295h119l-276 -295 h-80z" />
<glyph unicode="&#xd4;" horiz-adv-x="1208" d="M109 682q0 150 31 275q31 126 96 225q62 95 155 151q92 56 213 56q120 0 214 -56t156 -151q61 -93 95 -225q33 -127 33 -275q0 -147 -33 -275q-34 -132 -95 -225q-62 -95 -156 -151t-214 -56q-121 0 -213 56q-93 56 -155 151q-65 99 -96 225q-31 125 -31 275zM229 682 q0 -121 25 -235q23 -104 72 -191q46 -82 116 -129t162 -47t162 47q71 48 118 129q48 83 72 191q25 114 25 235q0 120 -25 236q-24 109 -72 191q-48 81 -118 128t-162 47t-162 -47q-69 -47 -116 -128q-49 -86 -72 -191q-25 -116 -25 -236zM383 1491l168 295h106l174 -295h-73 l-154 229l-147 -229h-74z" />
<glyph unicode="&#xd5;" horiz-adv-x="1208" d="M109 682q0 150 31 275q31 126 96 225q62 95 155 151q92 56 213 56q120 0 214 -56t156 -151q61 -93 95 -225q33 -127 33 -275q0 -147 -33 -275q-34 -132 -95 -225q-62 -95 -156 -151t-214 -56q-121 0 -213 56q-93 56 -155 151q-65 99 -96 225q-31 125 -31 275zM229 682 q0 -121 25 -235q23 -104 72 -191q46 -82 116 -129t162 -47t162 47q71 48 118 129q48 83 72 191q25 114 25 235q0 120 -25 236q-24 109 -72 191q-48 81 -118 128t-162 47t-162 -47q-69 -47 -116 -128q-49 -86 -72 -191q-25 -116 -25 -236zM338 1499q0 61 10 108q11 51 31 87 q21 37 51 58q31 22 72 22q51 0 78 -33q27 -34 45 -73q21 -48 35 -73q17 -32 53 -32q40 0 66 47t26 151h67q0 -60 -10 -107q-11 -51 -31 -87q-21 -38 -51 -59t-73 -21q-49 0 -76 33q-28 35 -45 72q-12 28 -37 73q-18 33 -51 33q-41 0 -67 -47q-25 -46 -25 -152h-68z" />
<glyph unicode="&#xd6;" horiz-adv-x="1208" d="M109 682q0 150 31 275q31 126 96 225q62 95 155 151q92 56 213 56q120 0 214 -56t156 -151q61 -93 95 -225q33 -127 33 -275q0 -147 -33 -275q-34 -132 -95 -225q-62 -95 -156 -151t-214 -56q-121 0 -213 56q-93 56 -155 151q-65 99 -96 225q-31 125 -31 275zM229 682 q0 -121 25 -235q23 -104 72 -191q46 -82 116 -129t162 -47t162 47q71 48 118 129q48 83 72 191q25 114 25 235q0 120 -25 236q-24 109 -72 191q-48 81 -118 128t-162 47t-162 -47q-69 -47 -116 -128q-49 -86 -72 -191q-25 -116 -25 -236zM354 1575q0 31 23 52q24 22 53 22 q30 0 52 -22t22 -52q0 -29 -22 -53q-21 -23 -52 -23q-30 0 -53 23t-23 53zM698 1575q0 31 23 52q24 22 53 22t53 -22q23 -21 23 -52q0 -30 -23 -53t-53 -23t-53 23t-23 53z" />
<glyph unicode="&#xd7;" horiz-adv-x="892" d="M121 416l268 268l-268 268l59 58l266 -269l269 269l59 -58l-268 -268l268 -268l-59 -58l-269 269l-266 -269z" />
<glyph unicode="&#xd8;" horiz-adv-x="1208" d="M109 682q0 150 31 275q31 126 96 225q62 95 155 151q92 56 213 56q75 0 144 -25q62 -23 120 -68l35 70h96l-67 -131q83 -98 127 -241q43 -141 43 -312q0 -147 -33 -275q-34 -132 -95 -225q-62 -95 -156 -151t-214 -56q-153 0 -266 93l-35 -68h-96l65 131q-81 97 -122 241 t-41 310zM229 682q0 -127 26 -242q25 -110 77 -194l485 950q-45 41 -96 65q-50 23 -117 23q-92 0 -162 -47q-69 -47 -116 -128q-49 -85 -72 -192q-25 -116 -25 -235zM389 170q90 -90 215 -90q92 0 162 47q71 48 118 129q48 83 72 191q25 114 25 235q0 131 -27 245 q-26 110 -80 195z" />
<glyph unicode="&#xd9;" horiz-adv-x="1130" d="M154 430v936h114v-936q0 -178 78 -265t219 -87t219 87t78 265v936h115v-936q0 -224 -108 -339q-108 -116 -304 -116t-304 116q-107 114 -107 339zM317 1786h119l238 -295h-80z" />
<glyph unicode="&#xda;" horiz-adv-x="1130" d="M154 430v936h114v-936q0 -178 78 -265t219 -87t219 87t78 265v936h115v-936q0 -224 -108 -339q-108 -116 -304 -116t-304 116q-107 114 -107 339zM457 1491l237 295h119l-276 -295h-80z" />
<glyph unicode="&#xdb;" horiz-adv-x="1130" d="M154 430v936h114v-936q0 -178 78 -265t219 -87t219 87t78 265v936h115v-936q0 -224 -108 -339q-108 -116 -304 -116t-304 116q-107 114 -107 339zM344 1491l168 295h106l175 -295h-74l-154 229l-147 -229h-74z" />
<glyph unicode="&#xdc;" horiz-adv-x="1130" d="M154 430v936h114v-936q0 -178 78 -265t219 -87t219 87t78 265v936h115v-936q0 -224 -108 -339q-108 -116 -304 -116t-304 116q-107 114 -107 339zM317 1575q0 31 23 52q24 22 53 22q30 0 52 -22t22 -52q0 -29 -22 -53q-21 -23 -52 -23q-30 0 -53 23t-23 53zM662 1575 q0 31 22 52q24 22 53 22q30 0 54 -22q22 -21 22 -52t-22 -53q-23 -23 -54 -23q-30 0 -53 23q-22 22 -22 53z" />
<glyph unicode="&#xdd;" horiz-adv-x="989" d="M16 1366h131l349 -666l348 666h129l-420 -780v-586h-115v586zM397 1491l238 295h119l-277 -295h-80z" />
<glyph unicode="&#xde;" horiz-adv-x="958" d="M154 0v1366h114v-254h262q88 0 156 -33q69 -34 113 -88t67 -128t23 -152q0 -79 -23 -153q-24 -75 -67 -126q-46 -54 -113 -85q-69 -32 -156 -32h-262v-315h-114zM268 418h254q117 0 183 82q65 81 65 211t-65 213q-66 84 -183 84h-254v-590z" />
<glyph unicode="&#xdf;" horiz-adv-x="1026" d="M156 0v1065q0 71 22 128q21 55 64 101q41 44 99 68t130 24q65 0 116 -17q54 -18 94 -49q37 -29 63 -76q24 -43 24 -97q0 -79 -41 -128q-38 -45 -91 -85q-57 -43 -91 -76q-41 -39 -41 -100q0 -58 36 -96q37 -38 90 -65q63 -32 116 -53q61 -25 117 -62q55 -36 90 -91 q36 -55 36 -143q0 -56 -20 -103q-21 -49 -59 -87q-37 -37 -95 -60t-131 -23q-116 0 -184 40q-72 42 -123 102l57 76q38 -51 94 -89q61 -41 150 -41q91 0 150 54q57 53 57 131q0 64 -36 104q-37 42 -89 70q-48 26 -117 54q-63 25 -117 61q-53 35 -89 86t-36 133q0 75 41 124 q40 48 90 87q61 48 91 77q41 39 41 97q0 32 -17 61q-16 28 -43 49q-25 20 -61 32q-32 11 -72 11q-88 0 -149 -58q-62 -59 -62 -171v-1065h-104z" />
<glyph unicode="&#xe0;" horiz-adv-x="901" d="M94 305q0 75 24 137q25 63 64 104q39 40 94 64q54 23 115 23q74 0 144 -31q67 -30 118 -102v194q0 111 -55 170q-56 60 -156 60q-72 0 -132 -30t-120 -99l-53 73q67 76 146 111t170 35q141 0 223 -75t82 -234v-705h-105v113q-51 -72 -118 -105t-144 -33q-61 0 -115 23 q-56 24 -94 65q-40 43 -64 105t-24 137zM203 303q0 -54 14 -95q15 -44 42 -78q25 -32 69 -53q42 -20 92 -20q69 0 131 32q61 31 102 104v221q-40 71 -102 104q-61 33 -131 33q-50 0 -92 -20q-44 -21 -69 -53q-27 -35 -42 -79q-14 -42 -14 -96zM205 1434h119l237 -295h-80z " />
<glyph unicode="&#xe1;" horiz-adv-x="901" d="M94 305q0 75 24 137q25 63 64 104q39 40 94 64q54 23 115 23q74 0 144 -31q67 -30 118 -102v194q0 111 -55 170q-56 60 -156 60q-72 0 -132 -30t-120 -99l-53 73q67 76 146 111t170 35q141 0 223 -75t82 -234v-705h-105v113q-51 -72 -118 -105t-144 -33q-61 0 -115 23 q-56 24 -94 65q-40 43 -64 105t-24 137zM203 303q0 -54 14 -95q15 -44 42 -78q25 -32 69 -53q42 -20 92 -20q69 0 131 32q61 31 102 104v221q-40 71 -102 104q-61 33 -131 33q-50 0 -92 -20q-44 -21 -69 -53q-27 -35 -42 -79q-14 -42 -14 -96zM348 1139l238 295h119 l-277 -295h-80z" />
<glyph unicode="&#xe2;" horiz-adv-x="901" d="M94 305q0 75 24 137q25 63 64 104q39 40 94 64q54 23 115 23q74 0 144 -31q67 -30 118 -102v194q0 111 -55 170q-56 60 -156 60q-72 0 -132 -30t-120 -99l-53 73q67 76 146 111t170 35q141 0 223 -75t82 -234v-705h-105v113q-51 -72 -118 -105t-144 -33q-61 0 -115 23 q-56 24 -94 65q-40 43 -64 105t-24 137zM203 303q0 -54 14 -95q15 -44 42 -78q25 -32 69 -53q42 -20 92 -20q69 0 131 32q61 31 102 104v221q-40 71 -102 104q-61 33 -131 33q-50 0 -92 -20q-44 -21 -69 -53q-27 -35 -42 -79q-14 -42 -14 -96zM233 1139l168 295h107 l174 -295h-74l-153 229l-148 -229h-74z" />
<glyph unicode="&#xe3;" horiz-adv-x="901" d="M94 305q0 75 24 137q25 63 64 104q39 40 94 64q54 23 115 23q74 0 144 -31q67 -30 118 -102v194q0 111 -55 170q-56 60 -156 60q-72 0 -132 -30t-120 -99l-53 73q67 76 146 111t170 35q141 0 223 -75t82 -234v-705h-105v113q-51 -72 -118 -105t-144 -33q-61 0 -115 23 q-56 24 -94 65q-40 43 -64 105t-24 137zM188 1147q0 55 11 107q11 54 30 87q21 37 52 59q30 21 71 21q52 0 78 -32q27 -34 45 -73q17 -38 36 -73q18 -33 52 -33q41 0 67 47q25 46 25 152h68q0 -60 -10 -107q-11 -53 -31 -88q-21 -37 -51 -58t-74 -21q-50 0 -76 32 q-27 34 -45 73q-12 28 -37 73q-18 33 -51 33q-40 0 -66 -48q-26 -47 -26 -151h-68zM203 303q0 -54 14 -95q15 -44 42 -78q25 -32 69 -53q42 -20 92 -20q69 0 131 32q61 31 102 104v221q-40 71 -102 104q-61 33 -131 33q-50 0 -92 -20q-44 -21 -69 -53q-27 -35 -42 -79 q-14 -42 -14 -96z" />
<glyph unicode="&#xe4;" horiz-adv-x="901" d="M94 305q0 75 24 137q25 63 64 104q39 40 94 64q54 23 115 23q74 0 144 -31q67 -30 118 -102v194q0 111 -55 170q-56 60 -156 60q-72 0 -132 -30t-120 -99l-53 73q67 76 146 111t170 35q141 0 223 -75t82 -234v-705h-105v113q-51 -72 -118 -105t-144 -33q-61 0 -115 23 q-56 24 -94 65q-40 43 -64 105t-24 137zM203 303q0 -54 14 -95q15 -44 42 -78q25 -32 69 -53q42 -20 92 -20q69 0 131 32q61 31 102 104v221q-40 71 -102 104q-61 33 -131 33q-50 0 -92 -20q-44 -21 -69 -53q-27 -35 -42 -79q-14 -42 -14 -96zM205 1231q0 31 22 52 q24 22 54 22t52 -22q21 -21 21 -52t-21 -53q-21 -23 -52 -23t-54 23q-22 22 -22 53zM549 1231q0 31 22 52q24 22 54 22q29 0 53 -22q22 -21 22 -52t-22 -53q-23 -23 -53 -23q-31 0 -54 23q-22 22 -22 53z" />
<glyph unicode="&#xe5;" horiz-adv-x="901" d="M94 305q0 75 24 137q25 63 64 104q39 40 94 64q54 23 115 23q74 0 144 -31q67 -30 118 -102v194q0 111 -55 170q-56 60 -156 60q-72 0 -132 -30t-120 -99l-53 73q67 76 146 111t170 35q141 0 223 -75t82 -234v-705h-105v113q-51 -72 -118 -105t-144 -33q-61 0 -115 23 q-56 24 -94 65q-40 43 -64 105t-24 137zM203 303q0 -54 14 -95q15 -44 42 -78q25 -32 69 -53q42 -20 92 -20q69 0 131 32q61 31 102 104v221q-40 71 -102 104q-61 33 -131 33q-50 0 -92 -20q-44 -21 -69 -53q-27 -35 -42 -79q-14 -42 -14 -96zM272 1309q0 36 15 69 q16 35 39 58q24 24 57 39q31 14 70 14q76 0 127 -53q51 -52 51 -127q0 -77 -51 -129q-52 -54 -127 -54q-37 0 -70 15t-57 39t-39 58t-15 71zM336 1309q0 -49 35 -84t82 -35q48 0 83 35q33 33 33 84q0 49 -33 82q-34 34 -83 34q-48 0 -82 -34q-35 -35 -35 -82z" />
<glyph unicode="&#xe6;" horiz-adv-x="1497" d="M94 303q0 75 24 137q25 64 63 105q39 42 94 65t116 23q77 0 144 -30q68 -30 118 -101v192q0 111 -55 170q-56 60 -156 60q-72 0 -132 -30t-120 -99l-53 73q67 76 146 111t170 35q123 0 192 -55q68 -54 84 -152q38 87 113 146q78 61 190 61q94 0 165 -42q72 -43 118 -113 t69 -166q23 -97 23 -199v-33h-651q1 -83 23 -157q21 -72 61 -126t94 -83t127 -29q145 0 244 133l63 -62q-59 -75 -136 -119q-76 -43 -177 -43q-65 0 -118 18t-93 45q-44 29 -72 63q-32 38 -53 75q-19 -36 -47 -70q-27 -33 -69 -64q-41 -30 -91 -48q-54 -19 -119 -19 q-60 0 -115 23q-58 24 -96 65q-39 42 -64 104q-24 60 -24 136zM203 303q0 -114 59 -179q61 -67 158 -67q79 0 147 43q71 45 117 142q-12 28 -21 79q-10 55 -10 91q-40 73 -102 106q-61 33 -131 33q-98 0 -158 -68q-59 -66 -59 -180zM756 543h544q0 63 -15 131 q-14 65 -47 124q-31 55 -84 92q-52 36 -126 36q-73 0 -123 -37q-53 -39 -84 -93q-33 -57 -48 -124q-16 -70 -17 -129z" />
<glyph unicode="&#xe7;" horiz-adv-x="819" d="M98 496q0 108 27 202q27 93 77 165q49 69 123 111q71 40 164 40q99 0 160 -36q63 -37 109 -93l-62 -72q-44 60 -91 84q-50 25 -107 25q-71 0 -126 -35q-54 -35 -90 -93q-37 -61 -55 -136q-18 -76 -18 -162t18 -163q17 -73 55 -136q36 -61 90 -95q53 -34 126 -34 q59 0 107 24q47 24 91 84l62 -72q-43 -55 -99 -88t-137 -39l-33 -90q29 23 68 23q51 0 86 -36q35 -37 35 -97q0 -73 -55 -116q-56 -44 -136 -44q-55 0 -99 17q-46 18 -75 42l33 66q36 -31 69 -44t72 -13q47 0 82 24t35 68q0 38 -19 58q-20 22 -55 22q-41 0 -71 -35l-56 33 l46 122q-80 7 -150 53q-66 44 -110 113q-42 67 -67 160q-24 90 -24 193z" />
<glyph unicode="&#xe8;" horiz-adv-x="950" d="M98 496q0 106 27 201q28 98 76 165q51 72 120 111q71 41 160 41q96 0 168 -42q71 -41 118 -113q47 -71 69 -165q22 -92 22 -200v-33h-649q2 -87 22 -157q22 -74 60 -126q41 -55 94 -84q57 -31 127 -31q71 0 135 35q65 36 111 101l61 -62q-59 -75 -136 -119 q-76 -43 -175 -43q-96 0 -173 39q-75 38 -129 109q-53 69 -80 165q-28 98 -28 208zM209 543h543q0 59 -16 131q-14 65 -47 124q-31 55 -84 92q-53 36 -126 36t-123 -37q-53 -39 -83 -93q-32 -57 -48 -124q-16 -65 -16 -129zM236 1434h118l238 -295h-80z" />
<glyph unicode="&#xe9;" horiz-adv-x="950" d="M98 496q0 106 27 201q28 98 76 165q51 72 120 111q71 41 160 41q96 0 168 -42q71 -41 118 -113q47 -71 69 -165q22 -92 22 -200v-33h-649q2 -87 22 -157q22 -74 60 -126q41 -55 94 -84q57 -31 127 -31q71 0 135 35q65 36 111 101l61 -62q-59 -75 -136 -119 q-76 -43 -175 -43q-96 0 -173 39q-75 38 -129 109q-53 69 -80 165q-28 98 -28 208zM209 543h543q0 59 -16 131q-14 65 -47 124q-31 55 -84 92q-53 36 -126 36t-123 -37q-53 -39 -83 -93q-32 -57 -48 -124q-16 -65 -16 -129zM377 1139l237 295h119l-276 -295h-80z" />
<glyph unicode="&#xea;" horiz-adv-x="950" d="M98 496q0 106 27 201q28 98 76 165q51 72 120 111q71 41 160 41q96 0 168 -42q71 -41 118 -113q47 -71 69 -165q22 -92 22 -200v-33h-649q2 -87 22 -157q22 -74 60 -126q41 -55 94 -84q57 -31 127 -31q71 0 135 35q65 36 111 101l61 -62q-59 -75 -136 -119 q-76 -43 -175 -43q-96 0 -173 39q-75 38 -129 109q-53 69 -80 165q-28 98 -28 208zM209 543h543q0 59 -16 131q-14 65 -47 124q-31 55 -84 92q-53 36 -126 36t-123 -37q-53 -39 -83 -93q-32 -57 -48 -124q-16 -65 -16 -129zM260 1139l168 295h107l174 -295h-74l-154 229 l-147 -229h-74z" />
<glyph unicode="&#xeb;" horiz-adv-x="950" d="M98 496q0 106 27 201q28 98 76 165q51 72 120 111q71 41 160 41q96 0 168 -42q71 -41 118 -113q47 -71 69 -165q22 -92 22 -200v-33h-649q2 -87 22 -157q22 -74 60 -126q41 -55 94 -84q57 -31 127 -31q71 0 135 35q65 36 111 101l61 -62q-59 -75 -136 -119 q-76 -43 -175 -43q-96 0 -173 39q-75 38 -129 109q-53 69 -80 165q-28 98 -28 208zM209 543h543q0 59 -16 131q-14 65 -47 124q-31 55 -84 92q-53 36 -126 36t-123 -37q-53 -39 -83 -93q-32 -57 -48 -124q-16 -65 -16 -129zM233 1231q0 31 23 52q24 22 53 22q30 0 52 -22 t22 -52q0 -29 -22 -53q-21 -23 -52 -23q-30 0 -53 23t-23 53zM578 1231q0 31 22 52q24 22 53 22q30 0 54 -22q22 -21 22 -52t-22 -53q-23 -23 -54 -23q-30 0 -53 23q-22 22 -22 53z" />
<glyph unicode="&#xec;" horiz-adv-x="393" d="M-53 1434h119l237 -295h-80zM145 0v989h103v-989h-103z" />
<glyph unicode="&#xed;" horiz-adv-x="393" d="M90 1139l238 295h118l-276 -295h-80zM145 0v989h103v-989h-103z" />
<glyph unicode="&#xee;" horiz-adv-x="393" d="M-27 1139l168 295h107l174 -295h-74l-153 229l-148 -229h-74zM145 0v989h103v-989h-103z" />
<glyph unicode="&#xef;" horiz-adv-x="393" d="M-51 1231q0 31 22 52q24 22 54 22t52 -22q21 -21 21 -52t-21 -53q-21 -23 -52 -23t-54 23q-22 22 -22 53zM145 0v989h103v-989h-103zM293 1231q0 31 22 52q24 22 54 22q29 0 53 -22q22 -21 22 -52t-22 -53q-23 -23 -53 -23q-31 0 -54 23q-22 22 -22 53z" />
<glyph unicode="&#xf0;" d="M98 487q0 105 24 198q25 98 69 163q47 70 115 110q70 41 157 41q78 0 136 -35q62 -37 108 -114q-39 83 -92 164q-54 82 -115 153l-252 -112l-31 65l232 103q-19 22 -61 62l-64 58l77 68q91 -89 142 -147l190 86l29 -66l-172 -78q120 -148 197 -325t77 -375 q0 -111 -24 -207q-23 -94 -73 -168q-48 -72 -120 -114t-166 -42q-93 0 -166 41q-69 39 -119 112q-49 72 -73 163q-25 95 -25 196zM209 487q0 -81 16 -154q16 -75 49 -134q33 -60 84 -96q50 -35 123 -35t123 35t85 96q34 59 49 134q16 80 16 154q0 75 -16 155q-15 76 -49 133 q-34 58 -85 94t-123 36t-123 -36t-84 -94q-32 -57 -49 -133q-16 -73 -16 -155z" />
<glyph unicode="&#xf1;" horiz-adv-x="921" d="M147 0v989h103v-145q22 33 54 63q35 33 69 55q31 20 79 37q42 15 85 15q123 0 183 -65t60 -201v-748h-104v725q0 111 -46 154t-124 43q-39 0 -77 -15q-37 -15 -72 -39q-32 -22 -61 -56q-30 -36 -46 -64v-748h-103zM197 1147q0 60 10 107q11 51 31 87q21 38 51 59t71 21 q52 0 78 -32q27 -34 45 -73q17 -38 36 -73q18 -33 52 -33q41 0 67 47t26 152h67q0 -60 -10 -107q-11 -53 -31 -88q-21 -37 -51 -58t-74 -21q-50 0 -76 32q-27 34 -45 73q-17 38 -36 73q-18 33 -52 33q-40 0 -66 -48q-26 -47 -26 -151h-67z" />
<glyph unicode="&#xf2;" d="M98 496q0 100 25 198q23 92 73 165q49 72 119 113q72 42 166 42t166 -42q71 -42 120 -113q50 -73 73 -165q24 -95 24 -198q0 -106 -24 -200t-73 -166q-49 -71 -120 -113q-72 -42 -166 -42t-166 42q-70 41 -119 113t-73 166q-25 98 -25 200zM209 496q0 -82 16 -158 q16 -78 49 -137t84 -97q49 -36 123 -36t123 36q51 37 85 97q34 59 49 137q16 83 16 158q0 74 -16 156q-15 77 -49 136q-34 60 -85 97q-50 37 -123 37t-123 -37q-51 -38 -84 -97q-32 -59 -49 -136q-16 -74 -16 -156zM233 1434h119l238 -295h-80z" />
<glyph unicode="&#xf3;" d="M98 496q0 100 25 198q23 92 73 165q49 72 119 113q72 42 166 42t166 -42q71 -42 120 -113q50 -73 73 -165q24 -95 24 -198q0 -106 -24 -200t-73 -166q-49 -71 -120 -113q-72 -42 -166 -42t-166 42q-70 41 -119 113t-73 166q-25 98 -25 200zM209 496q0 -82 16 -158 q16 -78 49 -137t84 -97q49 -36 123 -36t123 36q51 37 85 97q34 59 49 137q16 83 16 158q0 74 -16 156q-15 77 -49 136q-34 60 -85 97q-50 37 -123 37t-123 -37q-51 -38 -84 -97q-32 -59 -49 -136q-16 -74 -16 -156zM375 1139l237 295h119l-276 -295h-80z" />
<glyph unicode="&#xf4;" d="M98 496q0 100 25 198q23 92 73 165q49 72 119 113q72 42 166 42t166 -42q71 -42 120 -113q50 -73 73 -165q24 -95 24 -198q0 -106 -24 -200t-73 -166q-49 -71 -120 -113q-72 -42 -166 -42t-166 42q-70 41 -119 113t-73 166q-25 98 -25 200zM209 496q0 -82 16 -158 q16 -78 49 -137t84 -97q49 -36 123 -36t123 36q51 37 85 97q34 59 49 137q16 83 16 158q0 74 -16 156q-15 77 -49 136q-34 60 -85 97q-50 37 -123 37t-123 -37q-51 -38 -84 -97q-32 -59 -49 -136q-16 -74 -16 -156zM258 1139l168 295h106l175 -295h-74l-154 229l-147 -229 h-74z" />
<glyph unicode="&#xf5;" d="M98 496q0 100 25 198q23 92 73 165q49 72 119 113q72 42 166 42t166 -42q71 -42 120 -113q50 -73 73 -165q24 -95 24 -198q0 -106 -24 -200t-73 -166q-49 -71 -120 -113q-72 -42 -166 -42t-166 42q-70 41 -119 113t-73 166q-25 98 -25 200zM209 496q0 -82 16 -158 q16 -78 49 -137t84 -97q49 -36 123 -36t123 36q51 37 85 97q34 59 49 137q16 83 16 158q0 74 -16 156q-15 77 -49 136q-34 60 -85 97q-50 37 -123 37t-123 -37q-51 -38 -84 -97q-32 -59 -49 -136q-16 -74 -16 -156zM215 1147q0 60 10 107q11 51 31 87q21 38 51 59t72 21 q52 0 78 -32q27 -34 45 -73q17 -38 36 -73q18 -33 52 -33q40 0 66 47t26 152h68q0 -55 -11 -107q-12 -55 -30 -88q-20 -36 -52 -58q-30 -21 -73 -21q-50 0 -76 32q-27 34 -45 73q-12 28 -37 73q-18 33 -51 33q-41 0 -67 -48q-25 -46 -25 -151h-68z" />
<glyph unicode="&#xf6;" d="M98 496q0 100 25 198q23 92 73 165q49 72 119 113q72 42 166 42t166 -42q71 -42 120 -113q50 -73 73 -165q24 -95 24 -198q0 -106 -24 -200t-73 -166q-49 -71 -120 -113q-72 -42 -166 -42t-166 42q-70 41 -119 113t-73 166q-25 98 -25 200zM209 496q0 -82 16 -158 q16 -78 49 -137t84 -97q49 -36 123 -36t123 36q51 37 85 97q34 59 49 137q16 83 16 158q0 74 -16 156q-15 77 -49 136q-34 60 -85 97q-50 37 -123 37t-123 -37q-51 -38 -84 -97q-32 -59 -49 -136q-16 -74 -16 -156zM233 1231q0 31 23 52q24 22 53 22q30 0 52 -22t22 -52 q0 -29 -22 -53q-21 -23 -52 -23q-30 0 -53 23t-23 53zM578 1231q0 31 22 52q24 22 53 22q30 0 54 -22q22 -21 22 -52t-22 -53q-23 -23 -54 -23q-30 0 -53 23q-22 22 -22 53z" />
<glyph unicode="&#xf7;" horiz-adv-x="907" d="M59 649v82h789v-82h-789zM375 338q0 35 23 57q25 23 57 23q34 0 57 -23t23 -57q0 -31 -23 -56q-22 -24 -57 -24q-33 0 -57 24q-23 23 -23 56zM375 1032q0 36 23 58t57 22q35 0 57 -22q23 -23 23 -58q0 -31 -23 -56q-22 -24 -57 -24q-33 0 -57 24q-23 23 -23 56z" />
<glyph unicode="&#xf8;" d="M98 496q0 100 25 198q23 92 73 165q49 72 119 113q72 42 166 42q64 0 124 -22q55 -20 100 -62l36 59h82l-69 -112q57 -74 83 -170q27 -99 27 -211q0 -106 -24 -200t-73 -166q-49 -71 -120 -113q-72 -42 -166 -42q-72 0 -129 24q-58 24 -102 64l-39 -63h-82l74 119 q-54 74 -79 169q-26 99 -26 208zM209 496q0 -79 13 -147q13 -70 42 -130l387 623q-33 37 -74 58q-44 22 -96 22q-73 0 -123 -37q-51 -38 -84 -97q-32 -59 -49 -136q-16 -74 -16 -156zM305 154q34 -42 77 -64t99 -22q74 0 123 36q51 37 85 97q34 59 49 137q16 83 16 158 q0 73 -16 150q-14 69 -46 132z" />
<glyph unicode="&#xf9;" horiz-adv-x="921" d="M145 240v749h103v-727q0 -110 46 -152t126 -42q78 0 147 51t107 119v751h104v-989h-104v141q-45 -65 -122 -116q-76 -50 -165 -50q-122 0 -182 62q-60 61 -60 203zM215 1434h119l237 -295h-79z" />
<glyph unicode="&#xfa;" horiz-adv-x="921" d="M145 240v749h103v-727q0 -110 46 -152t126 -42q78 0 147 51t107 119v751h104v-989h-104v141q-45 -65 -122 -116q-76 -50 -165 -50q-122 0 -182 62q-60 61 -60 203zM356 1139l238 295h119l-277 -295h-80z" />
<glyph unicode="&#xfb;" horiz-adv-x="921" d="M145 240v749h103v-727q0 -110 46 -152t126 -42q78 0 147 51t107 119v751h104v-989h-104v141q-45 -65 -122 -116q-76 -50 -165 -50q-122 0 -182 62q-60 61 -60 203zM238 1139l168 295h106l174 -295h-74l-153 229l-148 -229h-73z" />
<glyph unicode="&#xfc;" horiz-adv-x="921" d="M145 240v749h103v-727q0 -110 46 -152t126 -42q78 0 147 51t107 119v751h104v-989h-104v141q-45 -65 -122 -116q-76 -50 -165 -50q-122 0 -182 62q-60 61 -60 203zM219 1231q0 31 23 52q24 22 53 22q30 0 52 -22t22 -52q0 -29 -22 -53q-21 -23 -52 -23q-30 0 -53 23 t-23 53zM563 1231q0 31 23 52q24 22 53 22t53 -22q23 -21 23 -52q0 -30 -23 -53t-53 -23t-53 23t-23 53z" />
<glyph unicode="&#xfd;" horiz-adv-x="802" d="M20 989h115l266 -862l269 862h112l-399 -1214q-33 -95 -84 -136q-50 -40 -127 -40q-25 0 -48 4q-28 5 -42 10l18 94q15 -8 34 -12q17 -4 32 -4q45 0 71 23q28 25 50 89l59 177zM295 1139l237 295h119l-276 -295h-80z" />
<glyph unicode="&#xfe;" horiz-adv-x="958" d="M145 -377v1743h103v-520q44 80 111 123q69 45 155 45q83 0 150 -38q65 -37 109 -107q45 -71 68 -163q23 -91 23 -210t-23 -210q-24 -96 -68 -165q-45 -72 -109 -108q-67 -38 -150 -38q-81 0 -149 43q-71 45 -117 129v-524h-103zM248 252q16 -37 41 -69q26 -33 58 -59 t70 -41q37 -15 79 -15q65 0 114 34t81 94t47 136q16 83 16 164q0 80 -16 163q-15 77 -47 137q-31 57 -81 92q-49 34 -114 34q-39 0 -79 -16q-37 -15 -70 -40q-30 -23 -58 -57q-24 -30 -41 -68v-489z" />
<glyph unicode="&#xff;" horiz-adv-x="802" d="M20 989h115l266 -862l269 862h112l-399 -1214q-33 -95 -84 -136q-50 -40 -127 -40q-25 0 -48 4q-28 5 -42 10l18 94q15 -8 34 -12q17 -4 32 -4q45 0 71 23q28 25 50 89l59 177zM154 1231q0 31 22 52q24 22 53 22q31 0 53 -22q21 -21 21 -52t-21 -53q-21 -23 -53 -23 q-30 0 -53 23q-22 22 -22 53zM498 1231q0 31 22 52q24 22 53 22q30 0 54 -22q22 -21 22 -52t-22 -53q-23 -23 -54 -23q-30 0 -53 23q-22 22 -22 53z" />
<glyph unicode="&#x2c6;" horiz-adv-x="448" d="M0 1139l168 295h106l175 -295h-74l-154 229l-147 -229h-74z" />
<glyph unicode="&#x2dc;" horiz-adv-x="534" d="M0 1147q0 60 10 107q11 51 31 87q21 38 51 59t72 21q52 0 78 -32q27 -34 45 -73q17 -38 36 -73q18 -33 52 -33q40 0 66 47t26 152h68q0 -55 -11 -107q-12 -55 -30 -88q-20 -36 -52 -58q-30 -21 -73 -21q-50 0 -76 32q-27 34 -45 73q-12 28 -37 73q-18 33 -51 33 q-41 0 -67 -48q-25 -46 -25 -151h-68z" />
<glyph unicode="&#x2000;" horiz-adv-x="893" />
<glyph unicode="&#x2001;" horiz-adv-x="1786" />
<glyph unicode="&#x2002;" horiz-adv-x="893" />
<glyph unicode="&#x2003;" horiz-adv-x="1786" />
<glyph unicode="&#x2004;" horiz-adv-x="595" />
<glyph unicode="&#x2005;" horiz-adv-x="446" />
<glyph unicode="&#x2006;" horiz-adv-x="297" />
<glyph unicode="&#x2007;" horiz-adv-x="297" />
<glyph unicode="&#x2008;" horiz-adv-x="223" />
<glyph unicode="&#x2009;" horiz-adv-x="357" />
<glyph unicode="&#x200a;" horiz-adv-x="99" />
<glyph unicode="&#x2010;" horiz-adv-x="544" d="M61 449v94h422v-94h-422z" />
<glyph unicode="&#x2011;" horiz-adv-x="544" d="M61 449v94h422v-94h-422z" />
<glyph unicode="&#x2012;" horiz-adv-x="544" d="M61 449v94h422v-94h-422z" />
<glyph unicode="&#x2013;" horiz-adv-x="1079" d="M61 449v94h957v-94h-957z" />
<glyph unicode="&#x2014;" horiz-adv-x="1509" d="M61 449v94h1387v-94h-1387z" />
<glyph unicode="&#x2018;" horiz-adv-x="446" d="M117 1110q0 87 43 161q44 76 102 115l60 -49q-47 -33 -82 -88q-32 -51 -37 -100q4 0 9 1t11 1q34 0 59 -25q23 -23 23 -59q0 -35 -24 -60q-24 -26 -62 -26q-42 0 -72 34q-30 35 -30 95z" />
<glyph unicode="&#x2019;" horiz-adv-x="446" d="M117 1028q47 33 83 89q33 52 38 102q-5 0 -10 -1t-11 -1q-37 0 -59 24q-23 25 -23 59t25 61q24 25 61 25q42 0 71 -33q30 -35 30 -98q0 -84 -43 -158q-44 -76 -103 -116z" />
<glyph unicode="&#x201a;" horiz-adv-x="446" d="M117 -201q46 32 83 88q33 50 38 101q-5 0 -10 -1t-11 -1q-37 0 -59 24q-23 25 -23 60q0 33 25 60q24 26 61 26q41 0 71 -34t30 -95q0 -87 -43 -161q-44 -76 -103 -116z" />
<glyph unicode="&#x201c;" horiz-adv-x="735" d="M125 1110q0 87 43 161q44 76 102 115l60 -49q-47 -33 -82 -88q-32 -51 -37 -100h8q5 0 6 1t6 1q35 0 58 -25q22 -23 22 -59t-23 -60q-24 -26 -63 -26q-40 0 -70 34q-30 35 -30 95zM412 1110q0 87 43 161q44 76 102 115l59 -49q-46 -32 -81 -88q-32 -51 -37 -100q4 0 9 1 t11 1q34 0 59 -25q23 -23 23 -59q0 -33 -25 -60q-24 -26 -61 -26q-42 0 -72 34q-30 35 -30 95z" />
<glyph unicode="&#x201d;" horiz-adv-x="735" d="M117 1028q47 33 83 89q33 52 38 102q-5 0 -10 -1t-11 -1q-37 0 -59 24q-23 25 -23 59t25 61q24 25 61 25q42 0 71 -33q30 -35 30 -98q0 -84 -43 -158q-44 -76 -103 -116zM406 1028q46 32 81 89q32 53 37 102q-4 0 -9 -1t-11 -1q-35 0 -59 24q-23 23 -23 59t24 61t62 25 q42 0 71 -33t29 -98q0 -85 -42 -159q-44 -76 -101 -115z" />
<glyph unicode="&#x201e;" horiz-adv-x="735" d="M117 -201q46 32 83 88q33 50 38 101q-5 0 -10 -1t-11 -1q-37 0 -59 24q-23 25 -23 60q0 33 25 60q24 26 61 26q41 0 71 -34t30 -95q0 -87 -43 -161q-44 -76 -103 -116zM406 -201q46 32 81 88q32 51 37 101q-4 0 -9 -1t-11 -1q-35 0 -59 24q-23 23 -23 60q0 34 24 60 t62 26q41 0 71 -34q29 -33 29 -95q0 -86 -42 -161q-43 -77 -101 -116z" />
<glyph unicode="&#x2022;" horiz-adv-x="733" d="M160 496q0 88 60 148q61 61 149 61q87 0 148 -61t61 -148q0 -42 -17 -81t-44 -66q-28 -28 -66 -44t-82 -16t-82 16q-40 17 -67 44t-44 66q-16 36 -16 81z" />
<glyph unicode="&#x2026;" horiz-adv-x="1341" d="M135 70q0 34 27 60q28 26 61 26q37 0 63 -26q25 -25 25 -60q0 -38 -25 -63t-63 -25q-35 0 -61 25q-27 25 -27 63zM582 70q0 35 26 60q28 26 62 26q35 0 63 -26q27 -26 27 -60q0 -38 -27 -63q-26 -25 -63 -25q-36 0 -62 25t-26 63zM1028 70q0 34 27 60q28 26 63 26 q34 0 62 -26q26 -25 26 -60q0 -38 -26 -63t-62 -25q-37 0 -63 25q-27 25 -27 63z" />
<glyph unicode="&#x202f;" horiz-adv-x="357" />
<glyph unicode="&#x2039;" horiz-adv-x="483" d="M61 498l256 362h105l-256 -362l256 -369h-105z" />
<glyph unicode="&#x203a;" horiz-adv-x="483" d="M61 129l256 369l-256 362h105l256 -362l-256 -369h-105z" />
<glyph unicode="&#x205f;" horiz-adv-x="446" />
<glyph unicode="&#x2122;" horiz-adv-x="847" d="M35 1313v53h270v-53h-106v-398h-58v398h-106zM379 915v451h88l111 -324l110 324h88v-451h-57v373l-133 -373h-17l-133 373v-373h-57z" />
<glyph unicode="&#x25fc;" horiz-adv-x="993" d="M0 0v993h993v-993h-993z" />
</font>
</defs>
</svg>
